/* XPM */
static char *leaderboard[] = {
/* columns rows colors chars-per-pixel */
"317 40 2 1 ",
"  c None",
". c #FFFFFF",
/* pixels */
"                                                                                                                                                                                                                                                                                                                             ",
"                                                                                                             .......                                                          ......                                                                                                                                  .......",
"                                                                                                             .......                                                          ......                                                                                                                                  .......",
".......                                                                                                      .......                                                          ......                                                                                                                                  .......",
".......                                                                                                      .......                                                          ......                                                                                                                                  .......",
".......                                                                                                      .......                                                          ......                                                                                                                                  .......",
".......                                                                                                      .......                                                          ......                                                                                                                                  .......",
".......                                                                                                      .......                                                          ......                                                                                                                                  .......",
".......                                                                                                      .......                                                          ......                                                                                                                                  .......",
".......                                                                                                      .......                                                          ......                                                                                                                                  .......",
".......                                                                                                      .......                                                          ......                                                                                                                                  .......",
".......                             .........                    .........                      ........     .......              .........               ......     .....    ......     ........                       ........                      .........               ......     .....           ........     .......",
".......                           .............              ...............                  .............  .......            .............             ......  ........    ......  .............                  ..............               ...............             ......  ........         .............  .......",
".......                         .................          ...................              ........................          .................           ................    .......................              ..................           ...................           ................       ........................",
".......                        ...................        .....................            .........................         ...................          ................    ........................            ....................         .....................          ................      .........................",
".......                       .....................      .......................          ..........................        .....................         ................    .........................          ......................       .......................         ................     ..........................",
".......                      .......................      ......................         ...........................       .......................        ................    ..........................        ........................       ......................         ................    ...........................",
".......                     ..........    ..........      ........     ..........       ...........    .............      ..........    ..........        ............   .    ............    ...........      ...........    ..........       ........     ..........        ............   .   ...........    .............",
".......                     ........         ........      ....          ........       .........        ...........      ........         ........       .........           ..........         ........      .........        .........       ....          ........        .........          .........        ...........",
".......                    ........           .......      ...            .......      ........            .........     ........           .......       ........            .........           ........    ........            ........      ...            .......        ........          ........            .........",
".......                    .......             .......                    .......      .......             .........     .......             .......      ........            ........             .......    .......             ........                     .......        ........          .......             .........",
".......                    .......             .......                     .......     .......              ........     .......             .......      .......             .......              ........   .......              .......                      .......       .......           .......              ........",
".......                   .......               ......                     .......    .......               ........    .......               ......      .......             .......               .......  .......               .......                      .......       .......          .......               ........",
".......                   ............................         ...................    .......                .......    ............................      .......             .......               .......  .......                .......         ...................       .......          .......                .......",
".......                   .............................      .....................    .......                .......    .............................     ......              ......                .......  .......                .......       .....................       ......           .......                .......",
".......                   .............................    .......................    .......                .......    .............................     ......              ......                .......  .......                .......     .......................       ......           .......                .......",
".......                   .............................   ........................    .......                .......    .............................     ......              ......                .......  .......                .......    ........................       ......           .......                .......",
".......                   ............................   .........................    .......                .......    ............................      ......              .......               .......  .......                .......   .........................       ......           .......                .......",
".......                   .......                        ........          .......    ........              ........    .......                           ......              .......               .......  ........              .......    ........          .......       ......           ........              ........",
".......                    .......                       .......           .......     .......              ........     .......                          ......              .......              ........   .......              .......    .......           .......       ......            .......              ........",
".......                    .......               .       ......            .......     ........            .........     .......               .          ......              ........             .......    ........            ........    ......            .......       ......            ........            .........",
".......                    ........             ..       ......           ........     ........           ..........     ........             ..          ......              .........           ........    ........           ........     ......           ........       ......            ........           ..........",
".......                     .........         .....      .......         .........      .........        ...........      .........         .....         ......              ..........         ........      .........        .........     .......         .........       ......             .........        ...........",
"........                    ...........    .........     .........    ............      ...........    .............      ...........    .........        ......              ............    ...........      ...........    ..........      .........    ............       ......             ...........    .............",
"..........................   ........................    .........................       ...........................       ........................       ......              ..........................        ........................      .........................       ......              ...........................",
"..........................    ......................      ........................        ..........................        ......................        ......              .........................          ......................        ........................       ......               ..........................",
"..........................     ....................       ........................         .........................         ....................         ......              ........................            ....................         ........................       ......                .........................",
"..........................      ..................         .......................          ........................          ..................          ......              .......................              .................            .......................       ......                 ........................",
"..........................        ..............             ............. .......            .............  .......            ..............            ......              ......  .............                  ..............               ............. .......       ......                   .............  .......",
"..........................           .........                 ........    .......               .......     .......               .........              ......              ......     ........                       ........                    ........    .......       ......                      .......     ......."
};
