/* XPM */
static char *play[] = {
/* columns rows colors chars-per-pixel */
"105 50 2 1 ",
"  c None",
". c #FFFFFF",
/* pixels */
"                                                                                                         ",
"                                    ......                                                               ",
"                                    ......                                                               ",
"....................                ......                                                               ",
".......................             ......                                                               ",
".........................           ......                                                               ",
"..........................          ......                                                               ",
"...........................         ......                                                               ",
"............................        ......                                                               ",
".......           ...........       ......                                                               ",
".......              ........       ......                                                               ",
".......               ........      ......              .........         .......                ....... ",
".......                .......      ......          ...............       .......                ....... ",
".......                .......      ......        ...................     ........               ......  ",
".......                .......      ......       .....................     .......              .......  ",
".......                ........     ......      .......................    ........             .......  ",
".......                ........     ......       ......................     .......            .......   ",
".......                .......      ......       ........     ..........    .......            .......   ",
".......                .......      ......        ....          ........     .......          .......    ",
".......                .......      ......        ...            .......     .......          .......    ",
".......               ........      ......                       .......      .......         ......     ",
".......              .........      ......                        .......     .......        .......     ",
".......            ..........       ......                        .......     ........       .......     ",
"............................        ......            ...................      .......      .......      ",
"............................        ......          .....................      .......      .......      ",
"...........................         ......        .......................       .......    .......       ",
".........................           ......       ........................       .......    .......       ",
".......................             ......      .........................        .......   ......        ",
".....................               ......      ........          .......        .......  .......        ",
".......                             ......      .......           .......        ........ .......        ",
".......                             ......      ......            .......         ..............         ",
".......                             ......      ......           ........         ..............         ",
".......                             ......      .......         .........          ............          ",
".......                             ......      .........    ............          ............          ",
".......                             ......      .........................           ..........           ",
".......                             ......       ........................           ..........           ",
".......                             ......       ........................            ........            ",
".......                             ......        .......................            ........            ",
".......                             ......          ............. .......            ........            ",
".......                             ......            ........    .......            .......             ",
"                                                                                     .......             ",
"                                                                                    .......              ",
"                                                                           ..      ........              ",
"                                                                          ......  ........               ",
"                                                                          ................               ",
"                                                                         ................                ",
"                                                                         ...............                 ",
"                                                                          ..............                 ",
"                                                                           ...........                   ",
"                                                                             .......                     "
};
