/* XPM */
static char *quit[] = {
/* columns rows colors chars-per-pixel */
"110 49 2 1 ",
"  c None",
". c #FFFFFF",
/* pixels */
"                                                                                                              ",
"                                                                                ....                          ",
"                                                                               ......                         ",
"                                                                              ........                        ",
"               ..........                                                     ........                        ",
"            ................                                                  ........                        ",
"          ....................                                                ........       .......          ",
"        ........................                                               ......        .......          ",
"       ..........................                                               ....         .......          ",
"      ............................                                                           .......          ",
"     ............      ............                                                          .......          ",
"    ..........            ..........                                                         .......          ",
"   ..........              ..........       .......             .......        ......    ...................  ",
"   ........                  ........       .......             .......        ......    ...................  ",
"  ........                    ........      .......             .......        ......    ...................  ",
"  ........                    ........      .......             .......        ......    ...................  ",
" ........                      ........     .......             .......        ......    ...................  ",
" .......                        .......     .......             .......        ......    ...................  ",
" .......                        .......     .......             .......        ......        .......          ",
" .......                        .......     .......             .......        ......        .......          ",
" .......                        ........    .......             .......        ......        .......          ",
"........                         .......    .......             .......        ......        .......          ",
".......                          .......    .......             .......        ......        .......          ",
"........                         .......    .......             .......        ......        .......          ",
" .......                        ........    .......             .......        ......        .......          ",
" .......                        .......     .......             .......        ......        .......          ",
" .......                        .......     .......             .......        ......        .......          ",
" .......                        .......     .......             .......        ......        .......          ",
" ........                      ........     .......             .......        ......        .......          ",
"  ........                    ........      .......             .......        ......        .......          ",
"  ........                    ........      .......             .......        ......        .......          ",
"   ........                  ........        .......           ........        ......        .......          ",
"   ..........              ..........        .......           ........        ......        .......          ",
"    ..........            ..........         ........         .........        ......        ........      .  ",
"     .............    .............          ..........    ............        ......         ........  ....  ",
"      ............................            .........................        ......         ............... ",
"       ..........................              ........................        ......         ............... ",
"        ........................               ........................        ......          .............. ",
"         ......................                  ......................        ......           ............. ",
"           ..................        ..           .............  ......        ......            ...........  ",
"              .............         ....             .......     ......        ......              .......    ",
"                   ..........     ......                                                                      ",
"                    .....................                                                                     ",
"                     ....................                                                                     ",
"                      ..................                                                                      ",
"                       ................                                                                       ",
"                         .............                                                                        ",
"                           .........                                                                          ",
"                                                                                                              "
};
