/* XPM */
static char *title[] = {
/* columns rows colors chars-per-pixel */
"288 62 2 1 ",
"  c None",
". c #FFFFFF",
/* pixels */
" .........................                                                                                                                               .........                       ..........                                                                                             ",
" ..............................                                                                                                                          .........                      ...........                                                                                             ",
" ................................                                                                                                                        .........                     ...........                                                                                              ",
" ..................................                                                                                                                      .........                    ...........                                                                                               ",
" ...................................                                                   .........                                                         .........                   ...........                                                                          .........             ",
" ....................................                                                  .........                                                         .........                  ...........                                                                           .........             ",
" .....................................                                                 .........                                                         .........                 ...........                                                                            .........             ",
" ......................................                                                .........                                                         .........                ...........                                                                             .........             ",
" .........            .................                                                .........                                                         .........               ...........                                                                              .........             ",
" .........                  ............                                               .........                                                         .........              ...........                                                                               .........             ",
" .........                   ...........                                               .........                                                         .........             ...........                                                                                .........             ",
" .........                    ..........   .........                      ...............................                    .....                       .........            ...........                        ......                      ........         ....  ........................    ",
" .........                     .........   .........                     .................................               .............                   .........           ...........                    ...............                  ........     ........  .........................   ",
" .........                     .........   ..........                    .................................            ..................                 .........          ............                 ....................                ........  ...........  .........................   ",
" .........                     .........    .........                   ..................................           .....................               .........         ............                ........................              .....................  .........................   ",
" .........                     .........    .........                   ..................................         ........................              .........        ............                ..........................             .....................  .........................   ",
" .........                     .........    ..........                  ..................................        ..........................             .........       ............               .............................            .....................  .........................   ",
" .........                    ..........     .........                 ......... .........................       ............................            .........      ............                ..............................           .....................  .........................   ",
" .........                   ..........      ..........                ......... .........................      ..............................           .........     ............                  .............................           .....................  .........................   ",
" .........                 ............       .........               .........       ..........                ...............................          .........    ............                   ..............................          .....................       ..........             ",
" .....................................        ..........              .........        .........               ............         ...........          .........   ............                     .......           ...........          ..............               .........             ",
" .....................................         .........             .........         .........               ..........             ..........         .........   ...........                       ....              ..........          ............                 .........             ",
" ....................................          .........             .........         .........              ..........               .........         .........  ...........                        ..                 ..........         ...........                  .........             ",
" ....................................          ..........            ........          .........              .........                 .........        ......... .............                                           .........         ..........                   .........             ",
" .....................................          .........           .........          .........              ........                  .........        ........................                                          .........         ..........                   .........             ",
" ......................................         ..........          .........          .........             .........                   ........        .........................                             ..........  .........         .........                    .........             ",
" .......................................         .........         .........           .........             ....................................        .........................                         .........................         .........                    .........             ",
" .......................................         ..........        .........           .........             .....................................       ..........................                      ...........................         .........                    .........             ",
" .........              .................         .........       .........            .........             .....................................       ...........................                   .............................         .........                    .........             ",
" .........                    ...........         .........       .........            .........             .....................................       ............................                 ..............................         .........                    .........             ",
" .........                      ..........         .........      ........             .........             .....................................       ...............  ............               ...............................         .........                    .........             ",
" .........                      ..........         .........     .........             .........             .....................................       ..............    ...........               ...............................         .........                    .........             ",
" .........                       .........         ..........    .........             .........             .....................................       .............      ...........             ................................         .........                    .........             ",
" .........                       ..........         .........   .........              .........             .....................................       ............       ............            ...........            .........         .........                    .........             ",
" .........                       ..........         ..........  .........              .........             .........                                   ...........         ............           .........              .........         .........                    .........             ",
" .........                       ..........          ......... .........               .........             .........                                   ..........           ............         .........               .........         .........                    .........             ",
" .........                       ..........          ...................               .........              .........                                  .........             ............        .........               .........         .........                    .........             ",
" .........                       .........            .................                .........              ..........                 ...             .........              ...........        .........              ..........         .........                    .........             ",
" .........                      ..........            .................                .........               ..........               .....            .........               ...........       .........              ..........         .........                    .........             ",
" .........                     ...........            .................                ..........       ..     ............           ........           .........                ...........      ..........           ............         .........                    ..........       ..   ",
" .........                  ..............             ...............                 ...........    ....      ..............      ...........          .........                ............      ..........         .............         .........                    ...........    ....   ",
" ........................................              ...............                  ...................     ................................         .........                 ............     ................................         .........                     ...................  ",
" ........................................               .............                   ...................      ...............................         .........                  ............     ...............................         .........                     ...................  ",
" .......................................                .............                   ...................       .............................          .........                   ...........     ...............................         .........                     ...................  ",
" ......................................                  ...........                     ...................       ...........................           .........                    ...........     ..............................         .........                      ................... ",
" .....................................                   ...........                      ..................        ........................             .........                     ...........     .............................         .........                       .................. ",
" ...................................                      .........                        ................           .....................              .........                      ...........     ................... ........         .........                        ................  ",
" .................................                        .........                         .............               .................                .........                       ...........      ...............   ........         .........                         .............    ",
" .............................                           ..........                            ........                     .........                    .........                       ...........         .........     .........         .........                            ........      ",
"                                                         .........                                                                                                                                                                                                                              ",
"                                                        ..........                                                                                                                                                                                                                              ",
"                                             .          .........                                                                                                                                                                                                                               ",
"                                            ....       ..........                                                                                                                                                                                                                               ",
"                                            ......    ..........                                                                                                                                                                                                                                ",
"                                           .....................                                                                                                                                                                                                                                ",
"                                          .....................                                                                                                                                                                                                                                 ",
"                                          .....................                                                                                                                                                                                                                                 ",
"                                         .....................                                                                                                                                                                                                                                  ",
"                                          ...................                                                                                                                                                                                                                                   ",
"                                           .................                                                                                                                                                                                                                                    ",
"                                             .............                                                                                                                                                                                                                                      ",
"                                                ........                                                                                                                                                                                                                                        "
};
