/* XPM */
static char *border_xpm[] = {
/* columns rows colors chars-per-pixel */
"64 64 7 1 ",
"  c #131213",
". c #141214",
"X c #151515",
"o c #181818",
"O c #635F63",
"+ c #22B14C",
"@ c #FFFFFF",
/* pixels */
"++++++++++++++++++++++++OOOOOOOOOOOOOOOOooX.XXXX@@@@@@@@@@@@@@@@",
"++++++++++++++++++++++++OOOOOOOOOOOOOOOOXX XXXXX@@@@@@@@@@@@@@@@",
"++++++++++++++++++++++++OOOOOOOOOOOOOOOOXXXXooXX@@@@@@@@@@@@@@@@",
"++++++++++++++++++++++++OOOOOOOOOOOOOOOOoXXXooXX@@@@@@@@@@@@@@@@",
"++++++++++++++++++++++++OOOOOOOOOOOOOOOOXXXXXXXX@@@@@@@@@@@@@@@@",
"++++++++++++++++++++++++OOOOOOOOOOOOOOOOX..XXXXX@@@@@@@@@@@@@@@@",
"++++++++++++++++++++++++OOOOOOOOOOOOOOOOX.XXXX.X@@@@@@@@@@@@@@@@",
"++++++++++++++++++++++++OOOOOOOOOOOOOOOOX.XXXX.X@@@@@@@@@@@@@@@@",
"++++++++++++++++++++++++OOOOOOOOOOOOOOOOoXXXX...@@@@@@@@@@@@@@@@",
"++++++++++++++++++++++++OOOOOOOOOOOOOOOOX.XooXX.@@@@@@@@@@@@@@@@",
"++++++++++++++++++++++++OOOOOOOOOOOOOOOO.XXoooX.@@@@@@@@@@@@@@@@",
"++++++++++++++++++++++++OOOOOOOOOOOOOOOOXXXXoooX@@@@@@@@@@@@@@@@",
"++++++++++++++++++++++++OOOOOOOOOOOOOOOOoXXXXooX@@@@@@@@@@@@@@@@",
"++++++++++++++++++++++++OOOOOOOOOOOOOOOOXXXXXooX@@@@@@@@@@@@@@@@",
"++++++++++++++++++++++++OOOOOOOOOOOOOOOOXXoXXooo@@@@@@@@@@@@@@@@",
"++++++++++++++++++++++++OOOOOOOOOOOOOOOOXooX.Xoo@@@@@@@@@@@@@@@@",
"++++++++++++++++++++++++OOOOOOOOOOOOOOOOXXXoXXXX@@@@@@@@@@@@@@@@",
"++++++++++++++++++++++++OOOOOOOOOOOOOOOOXXXXXXX.@@@@@@@@@@@@@@@@",
"++++++++++++++++++++++++OOOOOOOOOOOOOOOOXoX..X..@@@@@@@@@@@@@@@@",
"++++++++++++++++++++++++OOOOOOOOOOOOOOOOXXX.XXXX@@@@@@@@@@@@@@@@",
"++++++++++++++++++++++++OOOOOOOOOOOOOOOOXooXXooX@@@@@@@@@@@@@@@@",
"++++++++++++++++++++++++OOOOOOOOOOOOOOOOXooX.XoX@@@@@@@@@@@@@@@@",
"++++++++++++++++++++++++OOOOOOOOOOOOOOOOXXXX..XX@@@@@@@@@@@@@@@@",
"++++++++++++++++++++++++OOOOOOOOOOOOOOOOXXXX..  @@@@@@@@@@@@@@@@",
"++++++++++++++++++++++++OOOOOOOOOOOOOOOOXXooXXoX@@@@@@@@@@@@@@@@",
"++++++++++++++++++++++++OOOOOOOOOOOOOOOOXXooXXoX@@@@@@@@@@@@@@@@",
"++++++++++++++++++++++++OOOOOOOOOOOOOOOOXooXXXXX@@@@@@@@@@@@@@@@",
"++++++++++++++++++++++++OOOOOOOOOOOOOOOOXXXooooX@@@@@@@@@@@@@@@@",
"++++++++++++++++++++++++OOOOOOOOOOOOOOOOXXXXXXX.@@@@@@@@@@@@@@@@",
"++++++++++++++++++++++++OOOOOOOOOOOOOOOOXoXXXXXX@@@@@@@@@@@@@@@@",
"++++++++++++++++++++++++OOOOOOOOOOOOOOOO .. .Xoo@@@@@@@@@@@@@@@@",
"++++++++++++++++++++++++OOOOOOOOOOOOOOOO   .XXoo@@@@@@@@@@@@@@@@",
"++++++++++++++++++++++++OOOOOOOOOOOOOOOO XXXXXXX@@@@@@@@@@@@@@@@",
"++++++++++++++++++++++++OOOOOOOOOOOOOOOOXXXXX..X@@@@@@@@@@@@@@@@",
"++++++++++++++++++++++++OOOOOOOOOOOOOOOOX.  oo.X@@@@@@@@@@@@@@@@",
"++++++++++++++++++++++++OOOOOOOOOOOOOOOOX.  XX. @@@@@@@@@@@@@@@@",
"++++++++++++++++++++++++OOOOOOOOOOOOOOOOoX..XXXX@@@@@@@@@@@@@@@@",
"++++++++++++++++++++++++OOOOOOOOOOOOOOOOooXXooXX@@@@@@@@@@@@@@@@",
"++++++++++++++++++++++++OOOOOOOOOOOOOOOOXXXXXXXX@@@@@@@@@@@@@@@@",
"++++++++++++++++++++++++OOOOOOOOOOOOOOOOX.XXXXXX@@@@@@@@@@@@@@@@",
"++++++++++++++++++++++++OOOOOOOOOOOOOOOOXXXXXXXX@@@@@@@@@@@@@@@@",
"++++++++++++++++++++++++OOOOOOOOOOOOOOOO XXX..XX@@@@@@@@@@@@@@@@",
"++++++++++++++++++++++++OOOOOOOOOOOOOOOO X..XXoo@@@@@@@@@@@@@@@@",
"++++++++++++++++++++++++OOOOOOOOOOOOOOOO..XXXXoo@@@@@@@@@@@@@@@@",
"++++++++++++++++++++++++OOOOOOOOOOOOOOOO..XXXXoo@@@@@@@@@@@@@@@@",
"++++++++++++++++++++++++OOOOOOOOOOOOOOOOX...XXoo@@@@@@@@@@@@@@@@",
"++++++++++++++++++++++++OOOOOOOOOOOOOOOOX...XXoo@@@@@@@@@@@@@@@@",
"++++++++++++++++++++++++OOOOOOOOOOOOOOOOXXXX....@@@@@@@@@@@@@@@@",
"++++++++++++++++++++++++OOOOOOOOOOOOOOOOXXXX    @@@@@@@@@@@@@@@@",
"++++++++++++++++++++++++OOOOOOOOOOOOOOOOoXooXXoo@@@@@@@@@@@@@@@@",
"++++++++++++++++++++++++OOOOOOOOOOOOOOOOoXooXXoo@@@@@@@@@@@@@@@@",
"++++++++++++++++++++++++OOOOOOOOOOOOOOOOXXXXXXXX@@@@@@@@@@@@@@@@",
"++++++++++++++++++++++++OOOOOOOOOOOOOOOOoXXXXXXX@@@@@@@@@@@@@@@@",
"++++++++++++++++++++++++OOOOOOOOOOOOOOOOXX..ooXX@@@@@@@@@@@@@@@@",
"++++++++++++++++++++++++OOOOOOOOOOOOOOOOXXX.ooXX@@@@@@@@@@@@@@@@",
"++++++++++++++++++++++++OOOOOOOOOOOOOOOOXXXXXXXX@@@@@@@@@@@@@@@@",
"++++++++++++++++++++++++OOOOOOOOOOOOOOOOXX..XXoo@@@@@@@@@@@@@@@@",
"++++++++++++++++++++++++OOOOOOOOOOOOOOOO.XXXXXXX@@@@@@@@@@@@@@@@",
"++++++++++++++++++++++++OOOOOOOOOOOOOOOOXXooXXoo@@@@@@@@@@@@@@@@",
"++++++++++++++++++++++++OOOOOOOOOOOOOOOO..ooXXXX@@@@@@@@@@@@@@@@",
"++++++++++++++++++++++++OOOOOOOOOOOOOOOOX.XXXXXX@@@@@@@@@@@@@@@@",
"++++++++++++++++++++++++OOOOOOOOOOOOOOOOX.XXooXX@@@@@@@@@@@@@@@@",
"++++++++++++++++++++++++OOOOOOOOOOOOOOOOXXooooXX@@@@@@@@@@@@@@@@",
"++++++++++++++++++++++++OOOOOOOOOOOOOOOOooooXXXX@@@@@@@@@@@@@@@@"
};
