/* XPM */
static char *right_border_xpm[] = {
/* columns rows colors chars-per-pixel */
"64 64 8 1 ",
"  c #131213",
". c #141314",
"X c #151415",
"o c #635F70",
"O c #635F50",
"+ c #635F63",
"@ c #22B14C",
"# c #FFFFFF",
/* pixels */
"################XXXXOOOO++++++++++++++++@@@@@@@@@@@@@@@@@@@@@@@@",
"################..OOOOXX++++++++++++++++@@@@@@@@@@@@@@@@@@@@@@@@",
"################XXOOXX.X++++++++++++++++@@@@@@@@@@@@@@@@@@@@@@@@",
"################XXXXXX.X++++++++++++++++@@@@@@@@@@@@@@@@@@@@@@@@",
"################XXXXOO..++++++++++++++++@@@@@@@@@@@@@@@@@@@@@@@@",
"################XXXXOOXX++++++++++++++++@@@@@@@@@@@@@@@@@@@@@@@@",
"################XXXXXXXX++++++++++++++++@@@@@@@@@@@@@@@@@@@@@@@@",
"################OOXX.XXX++++++++++++++++@@@@@@@@@@@@@@@@@@@@@@@@",
"################XXXXXXXX++++++++++++++++@@@@@@@@@@@@@@@@@@@@@@@@",
"################XXOO...X++++++++++++++++@@@@@@@@@@@@@@@@@@@@@@@@",
"################XXOO...X++++++++++++++++@@@@@@@@@@@@@@@@@@@@@@@@",
"################XXXXXXXX++++++++++++++++@@@@@@@@@@@@@@@@@@@@@@@@",
"################XXXXXXXX++++++++++++++++@@@@@@@@@@@@@@@@@@@@@@@@",
"################OOXXOOXO++++++++++++++++@@@@@@@@@@@@@@@@@@@@@@@@",
"################OOXXOOXO++++++++++++++++@@@@@@@@@@@@@@@@@@@@@@@@",
"################    XXXX++++++++++++++++@@@@@@@@@@@@@@@@@@@@@@@@",
"################..XXXXXX++++++++++++++++@@@@@@@@@@@@@@@@@@@@@@@@",
"################OOXX...X++++++++++++++++@@@@@@@@@@@@@@@@@@@@@@@@",
"################OOXX...X++++++++++++++++@@@@@@@@@@@@@@@@@@@@@@@@",
"################XXXXXX..++++++++++++++++@@@@@@@@@@@@@@@@@@@@@@@@",
"################OOXXXX..++++++++++++++++@@@@@@@@@@@@@@@@@@@@@@@@",
"################OOXX..X ++++++++++++++++@@@@@@@@@@@@@@@@@@@@@@@@",
"################XX..XXX ++++++++++++++++@@@@@@@@@@@@@@@@@@@@@@@@",
"################XXXXXXXX++++++++++++++++@@@@@@@@@@@@@@@@@@@@@@@@",
"################XXXXXX.X++++++++++++++++@@@@@@@@@@@@@@@@@@@@@@@@",
"################XXXXXXXX++++++++++++++++@@@@@@@@@@@@@@@@@@@@@@@@",
"################XXOOXXOO++++++++++++++++@@@@@@@@@@@@@@@@@@@@@@@@",
"################XXXX..XO++++++++++++++++@@@@@@@@@@@@@@@@@@@@@@@@",
"################ .XX  .X++++++++++++++++@@@@@@@@@@@@@@@@@@@@@@@@",
"################X.OO  .X++++++++++++++++@@@@@@@@@@@@@@@@@@@@@@@@",
"################X..XXXXX++++++++++++++++@@@@@@@@@@@@@@@@@@@@@@@@",
"################XXXXXXX ++++++++++++++++@@@@@@@@@@@@@@@@@@@@@@@@",
"################OOXX.   ++++++++++++++++@@@@@@@@@@@@@@@@@@@@@@@@",
"################OOX. .. ++++++++++++++++@@@@@@@@@@@@@@@@@@@@@@@@",
"################XXXXXXOX++++++++++++++++@@@@@@@@@@@@@@@@@@@@@@@@",
"################.XXXXXXX++++++++++++++++@@@@@@@@@@@@@@@@@@@@@@@@",
"################XOOOXXXX++++++++++++++++@@@@@@@@@@@@@@@@@@@@@@@@",
"################XXXXXXOX++++++++++++++++@@@@@@@@@@@@@@@@@@@@@@@@",
"################XOXXOXXX++++++++++++++++@@@@@@@@@@@@@@@@@@@@@@@@",
"################XOXXOXXX++++++++++++++++@@@@@@@@@@@@@@@@@@@@@@@@",
"################  ..XXXX++++++++++++++++@@@@@@@@@@@@@@@@@@@@@@@@",
"################XX..XXXX++++++++++++++++@@@@@@@@@@@@@@@@@@@@@@@@",
"################XOXXXOOX++++++++++++++++@@@@@@@@@@@@@@@@@@@@@@@@",
"################XOOXXOXX++++++++++++++++@@@@@@@@@@@@@@@@@@@@@@@@",
"################XXXX.XXX++++++++++++++++@@@@@@@@@@@@@@@@@@@@@@@@",
"################XXXX.XOX++++++++++++++++@@@@@@@@@@@@@@@@@@@@@@@@",
"################.XXXXXXX++++++++++++++++@@@@@@@@@@@@@@@@@@@@@@@@",
"################XXXXOXXX++++++++++++++++@@@@@@@@@@@@@@@@@@@@@@@@",
"################OOX.XOOX++++++++++++++++@@@@@@@@@@@@@@@@@@@@@@@@",
"################OOOXXOXX++++++++++++++++@@@@@@@@@@@@@@@@@@@@@@@@",
"################XOOXXXXX++++++++++++++++@@@@@@@@@@@@@@@@@@@@@@@@",
"################XOOXXXXO++++++++++++++++@@@@@@@@@@@@@@@@@@@@@@@@",
"################XOOOXXXX++++++++++++++++@@@@@@@@@@@@@@@@@@@@@@@@",
"################XXOOOXX.++++++++++++++++@@@@@@@@@@@@@@@@@@@@@@@@",
"################..XOOX.X++++++++++++++++@@@@@@@@@@@@@@@@@@@@@@@@",
"################...XXXXO++++++++++++++++@@@@@@@@@@@@@@@@@@@@@@@@",
"################X.XXXXXX++++++++++++++++@@@@@@@@@@@@@@@@@@@@@@@@",
"################X.XXXX.X++++++++++++++++@@@@@@@@@@@@@@@@@@@@@@@@",
"################XXXXX..X++++++++++++++++@@@@@@@@@@@@@@@@@@@@@@@@",
"################XXXXXXXX++++++++++++++++@@@@@@@@@@@@@@@@@@@@@@@@",
"################XXOOXXXO++++++++++++++++@@@@@@@@@@@@@@@@@@@@@@@@",
"################XXOOXXXX++++++++++++++++@@@@@@@@@@@@@@@@@@@@@@@@",
"################XXXXX XX++++++++++++++++@@@@@@@@@@@@@@@@@@@@@@@@",
"################XXXX.XOO++++++++++++++++@@@@@@@@@@@@@@@@@@@@@@@@"
};
