/* XPM */
static char *_928a7132590455eb85267b06678cf2c8GBYd6mmhBF1AlrN[] = {
/* columns rows colors chars-per-pixel */
"64 64 5 1 ",
"  c #131313",
". c #141314",
"X c #151415",
"o c gray9",
"O c gray10",
/* pixels */
"XXXXXXOOXXOOOXXXXOX  XXOOXXOOOOXXXXX.XXXOOX.XXXXXXXXXXXXXXXXOOOX",
"XXXXXXOXXXOOOOXXXXX  XXOOXXOOOOXXXXXX...XX XXXXXXX.XXXXXXXXXXOOX",
"XXXXXXX.XOXXXXXX .XXXXXOOOOXXXXOOX.XXXXXXXXXOOXXXX.XXXXXXXXXXOOX",
"XXXXX..XOOX.XXXXX..X ..XOOOXXXXOX.XOXXXXOXXXOOXXXXXXOX.XXXXXXXOX",
"X.XOXXXXOOX.XXOOX..OX..XXOOOOXXX.XOXXXX.XXXXXXXXXXXXOXXXXXXX..XX",
"XXOOXXXXOX..X.XX.. XOX.XXXXXOXXXXOOXXXXXX..XXXXXX...XXX..XXX.XXX",
"XX..XX.XXXXXXOX.... ......XXX.XX.....XOXX.XXXX.XXX. .  XX.XXXX.X",
"XXXXXX.XXXXXXOX.... ....X.XXX.XX.....XOXX.XXXX.XXX. .  XX.XXXX.X",
"XXXOXXXXXXXOXXOX.... ..XXXXX. XX... ..XXOXXXX....XXXOX ..  XXOX.",
"XXXXXXXXX..XOOOXXXXX...XXXXXX.XX.XXXX..XX.XOOX...XOOX..XX    OX.",
"XXXXX. XX...XXXXXXX... XOXXXX.XXXOXXX..X..XOOOX...XOXXXXX.   X  ",
"XXOXX.XOOXXX....XXOXXX..XXXXXXXXXOXXXXXXXXXXOOOXXX.XXXOXXX   X  ",
"XXOXXXXXXXXX.XX.XXXXX.....XXXXOXXOOXXX  OXXXXOOXXX....XXXOX.XOOO",
"XOOXXXXXXXXXXOX.XXXXXXXXX.XXXXOOOXXOOO  XXXXXOOXXXXXXX.  XX..OOO",
"OXXXXOOXXOOXXX..XXXOXXXX    .XOOXXXXOOXXXXOXXOOOOXXXXOX.  ...XXX",
"XXXXXOOXXOOXXXXXXXXOXXXX    X.OOXXXXOOXXXOOX.XOOOXXXXOOXXXXXXXXX",
"O.XXXXXXXXXOOXXXXXXOOOOOOOOOXXXXXXOOXXOOXXXOXXXXXXXXXOOOOXXXXOOO",
"OXXXXXXXXXXOOXXXXXXOOOOOOOOOXXXXXXOOXXOOXXXXXXX.X.XXXOOOOXXXXOOO",
"XXXXXXXOOXXOOOOXXOOX  XXOOXXOOOOXXXXXXXXXOX..X...XXXXXXXXXXXXOOO",
"XXXXXXXOOXXOOOOXXOOX  XXOOXXOOOOXXXXXXXXXXX.XXXX..X.XXXXXXXXXXOO",
"XXXXXXXXXOOXXXXXXXXXXXXXOOOOXXXXOOXXOOOOXXOXXOOXXXX.XXXXX..XXXOO",
"XXXXXXXXXOOXXXXXXXXXXXXXOOOOXXXXOOX.OOXXXOOXXXOXXXX.XX...XXXXXOO",
"XXXOOXXXXOOXXXXOOXXXOOXXXXOOOOXXXXXXXXXXXXXXX.XXXXXXXX...XXXXXXX",
"XXXOOXXXXOOXXXXOOXXXOOXXXXOOOX..XXOOXXXXXXXXX.  ....XXX..XXXXXXX",
"OOOXXOOXXXXXXOOXXXXXXXXXXXX....    ...XXXXXOXXOX.XX. ..  XXOOX.X",
"OOOXXOOXXXXXXOOXXXXXXXXXXXX....    ...XXXXXOXXOX..X. ..  XXOOX.X",
"OXXOOXXXXXXOOXXOOXXXXXXXOOXXXXX.XXXX.  XXOXXXXXX....XXX.   XOXXO",
"XXXXXXXXXXXXXOOOOOXXXXXXOOXXXXXXXXXXXX .XXXXOOOX...XOXX. XXXX.XO",
"XXXXXXXXXXXXXOXXOXXXXXXXOOXXXXX...OO.   XXXXXXX.XXXOX....XX XXXX",
"OXXOOXXOOOOXXXXXXXXOOOXXXXXXOOOX..OO.  .XOXXXXXXXXOX...XXOX XXXX",
"OXXOOXOOXXOXXXXX.XXXOOXXXXXXOOOX..OX  XX .. .XOOXXX    XXXX. XXO",
"OOOOOOOOXXOOOOOX.XXXOOOOOOXXXXOXXXXX..XX   .XXOOXXXXXXX    .  XO",
"OOXXOOXXOOOOXXOXXOXXOXXXXOXXXXOXXX .X.XX XXXXXXXXXXXOXX .     .O",
"XXXXOOXXOOOOXXOXOOXXOXXXXOOOOOXXXX.XX.XXXXXXX..XXXXXOXX.X    ..O",
"OOXOOOOOOOXXXXX.XXXXXOOXXXXXXOXXOOXXX..XX.  OO.XXXXXXXXX..XXXXXX",
"XXXXXXXXOOOOXXOOXXXXXXXXXXXOOXXOOX. ...XX.  XX. XXXXXXXXOO.XXXXX",
"XXXXXXXXOOOOXXOOXXXXXXXXXXXOOXXXX...  .XOXX.XXXXXXXX.   XOX.XXOX",
"OOXXOOOOOOXXOOOOXXXXOXXXXXXOOXXXX... ..XOOXXOOXXXXOOX   .X  .XOX",
"OOXXOOOOOOXXOOOOXXXXOXXXXXXOOX.OX.XXXX.XXXXXXXXXXX..X.  .X  X X.",
"XXOOXXXXOOXXXXXXXXOOXXXXXOOXXXXX.XXXXX.XXXXXXXXXXX..XX.X.XXX    ",
"XXOOXXXXOOXXXXXXOOOOXXX..OOXXXXX.XXXXXXXXXXXXXXXXX..XOOX.X..  X ",
"XXOOXXXXXXXXXXOOOXXXXX...XXXXXXXXXXXOOX  XXX..XXXX.. XX. .XOXXOX",
"XXOOXXXXXXXXXXOOXXXXXXXXXXXXXXXOXXOOXXO  X..XXOO.... ...  XX.XXX",
"OOXXXXOOXXOOXXXXXXXXOXXXX      OXXXX.XOX..XXXXOOXX   .XX.....XX.",
"OOXXXXOOXXOOXXXXXXXXOXXXX    XXXX  XXOX...XXXXXXOO    ...XX.... ",
"OOXXXXXXXXXXOOXXXXXXOOOOOOOOOXXX.  XXXXXX...XXOOXXXX  ..XOX...XX",
"OOXXXXXXXXXXXXXXXXXXXOOOOOOOOXXX   XXXXXX...XXOOXXXXX...XOX...XX",
"XXXXXXXXOOXXXXOOXXOOX  XXOOXXOOOOXXXXXXXXXXX......XXXXXXXXXXXXOO",
"XXXX..XXOOXXXXXXXXOOX  XXOOXXOOXXXXXXX  XXXX    ..XXXXXX  XXXXOO",
"XXXXXXXXXXOO..XXXXXXXX.XXOOOOXXXXXXXXXXXOXOOXXOOXXXXXXXXXXXXXXXO",
"XXXXXXXX..OOXXXXXX  .XXXXOOOOXXXXXX..OXXOXOOXXOO....XXXXXX..XXXO",
"XX..OOXX..OOXXXXOX.. OOXXXXXXXXXX  XXXXXXXXXXXXXXX  XXXXXXXXXXXX",
"XXXXOOXX..XX....XOX. XXXXXXOOOOXX  OO...XXXXXXXX      XXXXXXXXX.",
"XXXXXXOO..XX..XX ... XXXX..XXXX..  XX. XXX..OOXX  ..XX  X XXXOOX",
"XXXXXXOO..XX..XX ... XXXX..XXXX..  XX. XXX..OOXX  ..XX    XXXOOX",
"XXXXOOXXXXXXXX..OX.....XXXXXXXX  ..XXX.XXXXXXXXXXX  ..    X.XXXO",
"XXXXXXXXXXXX..XXOXX..XXXXXXXXXX..XXOOXX.XX..XXOOXX  XX  ..X....O",
"..X.XXXXXXXXXXOOXX...XXXXXXXXXXXXXXOOXX .XXXXXXXXXXXXX..  .  XXO",
"XX..OOXXXXXXXXXX....XOOXXXXXXOOXXXXOOXXXXXOOXXXXOOOO..    X  XOO",
"XXXXXXXXXXOOXXXX  ..XXX..XXXXOOOOXX  XX...OOXXXXXXXX  XXXXOOX.XO",
"XXXXXXXXXXOOXXXX  XXXXXXXXXXXXXOOOO  OXXX.XXXXXXXXXXXXOO...XX..O",
"XXOOXXOOXXXXXXXXXXXXX    XXXXXXXXOOXXXOOX.XXOOXXXXOOXXXX..  .  O",
"XXOOXXOOXXXXXXXOXXXXX    XXOOXXXXOOXXXOOXXOOOO.XXXOOXXXXXXXXXXXO",
"XXXXXXXXOOXXXXXXXXXXOOOOOXXXXXXOOXXOOXXXOOOOXXXXXXOOOOXXXXOOOXXO"
};
