/* XPM */
static char *track_line_tile_xpm[] = {
/* columns rows colors chars-per-pixel */
"64 64 6 1 ",
"  c #131313",
". c #141314",
"X c #151415",
"o c #635F60",
"O c #635F80",
"+ c #FFFFFF",
/* pixels */
"XXXXXXOOXXOOOXXXXOX  XXOOXXOOOOXXXXX.XXXOOX.XXXXXXXXXXXXXXXXOOOX",
"XXXXXXOXXXOOOOXXXXX  XXOOXXOOOOXXXXXX...XX XXXXXXX.XXXXXXXXXXOOX",
"XXXXXXX.XOXXXXXX .XXXXXOOOOXXXXOOX.XXXXXXXXXOOXXXX.XXXXXXXXXXOOX",
"XXXXX..XOOX.XXXXX..X ..XOOOXXXXOX.XOXXXXOXXXOOXXXXXXOX.XXXXXXXOX",
"X.XOXXXXOOX.XXOOX..OX..XXOOOOXXX.XOXXXX.XXXXXXXXXXXXOXXXXXXX..XX",
"XXOOXXXXOX..X.XX.. XOX.XXXXXOXXXXOOXXXXXX..XXXXXX...XXX..XXX.XXX",
"XX..XX.XXXXXXOX.... ......XXX.XX.....XOXX.XXXX.XXX. .  XX.XXXX.X",
"XXXXXX.XXXXXXOX.... ....X.XXX.XX.....XOXX.XXXX.XXX. .  XX.XXXX.X",
"XXXOXXXXXXXOXXOX.... ..XXXXX. XX... ..XXOXXXX....XXXOX ..  XXOX.",
"XXXXXXXXX..XOOOXXXXX...XXXXXX.XX.XXXX..XX.XOOX...XOOX..XX    OX.",
"XXXXX. XX...XXXXXXX... XOXXXX.XXXOXXX..X..XOOOX...XOXXXXX.   X  ",
"XXOXX.XOOXXX....XXOXXXX.XXXXXXXXXOXXXXXXXXXXOOOXXX.XXXOXXX   X  ",
"XXOXXXXXXXXX.XX.XXXXX...++++++++++++++++OXXXXOOXXX....XXXOX.XOOO",
"XOOXXXXXXXXXXOX.XXXXXXXX++++++++++++++++XXXXXOOXXXXXXX.  XX..OOO",
"OXXXXOOXXOOXXX..XXXOXXXX++++++++++++++++XXOXXOOOOXXXXOX.  ...XXX",
"XXXXXOOXXOOXXXXXXXXOXXXX++++++++++++++++XOOX.XOOOXXXXOOXXXXXXXXX",
"O.XXXXXXXXXOOXXXXXXOOOOO++++++++++++++++XXXOXXXXXXXXXOOOOXXXXOOO",
"OXXXXXXXXXXOOXXXXXXOOOOO++++++++++++++++XXXXXXX.X.XXXOOOOXXXXOOO",
"XXXXXXXOOXXOOOOXXOOX  XX++++++++++++++++XOX..X...XXXXXXXXXXXXOOO",
"XXXXXXXOOXXOOOOXXOOX  XX++++++++++++++++XXX.XXXX..X.XXXXXXXXXXOO",
"XXXXXXXXXOOXXXXXXXXXXXXX++++++++++++++++XXOXXOOXXXX.XXXXX..XXXOO",
"XXXXXXXXXOOXXXXXXXXXXXXX++++++++++++++++XOOXXXOXXXX.XX...XXXXXOO",
"XXXOOXXXXOOXXXXOOXXXOOXX++++++++++++++++XXXXX.XXXXXXXX...XXXXXXX",
"XXXOOXXXXOOXXXXOOXXXOOXX++++++++++++++++XXXXX.  ....XXX..XXXXXXX",
"OOOXXOOXXXXXXOOXXXXXXXXX++++++++++++++++XXXOXXOX.XX. ..  XXOOX.X",
"OOOXXOOXXXXXXOOXXXXXXXXX++++++++++++++++XXXOXXOX..X. ..  XXOOX.X",
"OXXOOXXXXXXOOXXOOXXXXXXX++++++++++++++++XOXXXXXX....XXX.   XOXXO",
"XXXXXXXXXXXXXOOOOOXXXXXX++++++++++++++++XXXXOOOX...XOXX. XXXX.XO",
"XXXXXXXXXXXXXOXXOXXXXXXX++++++++++++++++XXXXXXX.XXXOX....XX XXXX",
"OXXOOXXOOOOXXXXXXXXOOOXX++++++++++++++++XOXXXXXXXXOX...XXOX XXXX",
"OXXOOXOOXXOXXXXX.XXXOOXX++++++++++++++++ .. .XOOXXX    XXXX. XXO",
"OOOOOOOOXXOOOOOX.XXXOOOO++++++++++++++++   .XXOOXXXXXXX    .  XO",
"OOXXOOXXOOOOXXOXXOXXOXXX++++++++++++++++ XXXXXXXXXXXOXX .     .O",
"XXXXOOXXOOOOXXOXOOXXOXXX++++++++++++++++XXXXX..XXXXXOXX.X    ..O",
"OOXOOOOOOOXXXXX.XXXXXOOX++++++++++++++++X.  OO.XXXXXXXXX..XXXXXX",
"XXXXXXXXOOOOXXOOXXXXXXXX++++++++++++++++X.  XX. XXXXXXXXOO.XXXXX",
"XXXXXXXXOOOOXXOOXXXXXXXX++++++++++++++++OXX.XXXXXXXX.   XOX.XXOX",
"OOXXOOOOOOXXOOOOXXXXOXXX++++++++++++++++OOXXOOXXXXOOX   .X  .XOX",
"OOXXOOOOOOXXOOOOXXXXOXXX++++++++++++++++XXXXXXXXXX..X.  .X  X X.",
"XXOOXXXXOOXXXXXXXXOOXXXX++++++++++++++++XXXXXXXXXX..XX.X.XXX    ",
"XXOOXXXXOOXXXXXXOOOOXXX.++++++++++++++++XXXXXXXXXX..XOOX.X..  X ",
"XXOOXXXXXXXXXXOOOXXXXX..++++++++++++++++ XXX..XXXX.. XX. .XOXXOX",
"XXOOXXXXXXXXXXOOXXXXXXXX++++++++++++++++ X..XXOO.... ...  XX.XXX",
"OOXXXXOOXXOOXXXXXXXXOXXX++++++++++++++++..XXXXOOXX   .XX.....XX.",
"OOXXXXOOXXOOXXXXXXXXOXXX++++++++++++++++..XXXXXXOO    ...XX.... ",
"OOXXXXXXXXXXOOXXXXXXOOOO++++++++++++++++X...XXOOXXXX  ..XOX...XX",
"OOXXXXXXXXXXXXXXXXXXXOOO++++++++++++++++X...XXOOXXXXX...XOX...XX",
"XXXXXXXXOOXXXXOOXXOOX  X++++++++++++++++XXXX......XXXXXXXXXXXXOO",
"XXXX..XXOOXXXXXXXXOOX  X++++++++++++++++XXXX    ..XXXXXX  XXXXOO",
"XXXXXXXXXXOO..XXXXXXXX.X++++++++++++++++OXOOXXOOXXXXXXXXXXXXXXXO",
"XXXXXXXX..OOXXXXXX  .XXX++++++++++++++++OXOOXXOO....XXXXXX..XXXO",
"XX..OOXX..OOXXXXOX.. OOXXXXXXXXXX  XXXXXXXXXXXXXXX  XXXXXXXXXXXX",
"XXXXOOXX..XX....XOX. XXXXXXOOOOXX  OO...XXXXXXXX      XXXXXXXXX.",
"XXXXXXOO..XX..XX ... XXXX..XXXX..  XX. XXX..OOXX  ..XX  X XXXOOX",
"XXXXXXOO..XX..XX ... XXXX..XXXX..  XX. XXX..OOXX  ..XX    XXXOOX",
"XXXXOOXXXXXXXX..OX.....XXXXXXXX  ..XXX.XXXXXXXXXXX  ..    X.XXXO",
"XXXXXXXXXXXX..XXOXX..XXXXXXXXXX..XXOOXX.XX..XXOOXX  XX  ..X....O",
"..X.XXXXXXXXXXOOXX...XXXXXXXXXXXXXXOOXX .XXXXXXXXXXXXX..  .  XXO",
"XX..OOXXXXXXXXXX....XOOXXXXXXOOXXXXOOXXXXXOOXXXXOOOO..    X  XOO",
"XXXXXXXXXXOOXXXX  ..XXX..XXXXOOOOXX  XX...OOXXXXXXXX  XXXXOOX.XO",
"XXXXXXXXXXOOXXXX  XXXXXXXXXXXXXOOOO  OXXX.XXXXXXXXXXXXOO...XX..O",
"XXOOXXOOXXXXXXXXXXXXX    XXXXXXXXOOXXXOOX.XXOOXXXXOOXXXX..  .  O",
"XXOOXXOOXXXXXXXOXXXXX    XXOOXXXXOOXXXOOXXOOOO.XXXOOXXXXXXXXXXXO",
"XXXXXXXXOOXXXXXXXXXXOOOOOXXXXXXOOXXOOXXXOOOOXXXXXXOOOOXXXXOOOXXO"
};
