/* XPM */
static char *barrier_xpm[] = {
/* columns rows colors chars-per-pixel */
"164 40 254 2 ",
"   c #000000",
".  c #181818",
"X  c #2A2A2A",
"o  c #535353",
"O  c #646464",
"+  c #7F7F7F",
"@  c #DE2D06",
"#  c #DE3602",
"$  c #DD3A05",
"%  c #DA3F0B",
"&  c #DC3E0A",
"*  c #DC3E0D",
"=  c #D83F12",
"-  c #EF2D07",
";  c #ED3707",
":  c #E23A0A",
">  c #E03F09",
",  c #F03F07",
"<  c #E43C11",
"1  c #ED3D10",
"2  c #DD400C",
"3  c #DD410F",
"4  c #DE4316",
"5  c #DF451A",
"6  c #E0430F",
"7  c #EC410A",
"8  c #F0400D",
"9  c #EF5402",
"0  c #E34316",
"q  c #EC4510",
"w  c #E94617",
"e  c #EF4514",
"r  c #E44917",
"t  c #EE4915",
"y  c #E04B1C",
"u  c #EA4C18",
"i  c #F04918",
"p  c #F04C1B",
"a  c #F04F1E",
"s  c #F34E1F",
"d  c #EC511A",
"f  c #F0521F",
"g  c #F0600D",
"h  c #F16C11",
"j  c #F26219",
"k  c #DE5123",
"l  c #DE542B",
"z  c #DF5A30",
"x  c #E24C21",
"c  c #E74E20",
"v  c #E34D26",
"b  c #E04F27",
"n  c #E54F24",
"m  c #EE4B21",
"M  c #E24D28",
"N  c #E05021",
"B  c #E15023",
"V  c #E25022",
"C  c #E15024",
"Z  c #E05025",
"A  c #E25026",
"S  c #E05326",
"D  c #E75625",
"F  c #EE5323",
"G  c #EA5621",
"H  c #ED5521",
"J  c #EE5326",
"K  c #E95425",
"L  c #E95427",
"P  c #EA5526",
"I  c #EC5425",
"U  c #ED5724",
"Y  c #EF5624",
"T  c #EC5526",
"R  c #EF5627",
"E  c #E45028",
"W  c #E2552B",
"Q  c #EB5328",
"!  c #EE562A",
"~  c #EA5928",
"^  c #ED5B2E",
"/  c #F15222",
"(  c #F55020",
")  c #F15421",
"_  c #F05721",
"`  c #F05523",
"'  c #F05623",
"]  c #F15226",
"[  c #F05525",
"{  c #F15525",
"}  c #F25424",
"|  c #F05625",
" . c #F35625",
".. c #F15526",
"X. c #F25426",
"o. c #F45822",
"O. c #F25428",
"+. c #F25C30",
"@. c #DB762C",
"#. c #F06C27",
"$. c #E87E2D",
"%. c #E2643C",
"&. c #A67C6C",
"*. c #EE6840",
"=. c #E8744D",
"-. c #F6811E",
";. c #EF842A",
":. c #F18623",
">. c #F38B24",
",. c #F3852A",
"<. c #F6872A",
"1. c #F7872D",
"2. c #F28D2A",
"3. c #F68E2A",
"4. c #F3892C",
"5. c #F4882D",
"6. c #F78B2D",
"7. c #F4882E",
"8. c #F68A2E",
"9. c #F58C2C",
"0. c #F48E2E",
"q. c #F88A2B",
"w. c #F0922C",
"e. c #F5972F",
"r. c #EE8530",
"t. c #F48B32",
"y. c #F28F32",
"u. c #F59A39",
"i. c #EBCC13",
"p. c #F1CF28",
"a. c #EAD22A",
"s. c #F8DB38",
"d. c #F08059",
"f. c #F6A142",
"g. c #F7AD50",
"h. c #DE8061",
"j. c #E88465",
"k. c #F28766",
"l. c #E98A70",
"z. c #F18E71",
"x. c #EC9576",
"c. c #E0907A",
"v. c #F49579",
"b. c #EED540",
"n. c #F2E47D",
"m. c #848484",
"M. c #929394",
"N. c #979898",
"B. c #9B9999",
"V. c #9A9B9D",
"C. c #9C9A9C",
"Z. c #9C9C9C",
"A. c #9D9E9E",
"S. c #A88F88",
"D. c #A6A4A5",
"F. c #AEAFAE",
"G. c #EB9E86",
"H. c #E1A895",
"J. c #F1A996",
"K. c #DCB7A9",
"L. c #EFBBAC",
"P. c #E1C4BC",
"I. c #F0C7BA",
"U. c #C7C7C7",
"Y. c #CDC4C1",
"T. c #C8C8C8",
"R. c #C9CACA",
"E. c #CBCBCB",
"W. c #808080",
"Q. c #CDCDCD",
"!. c #CCCFCD",
"~. c #818181",
"^. c #D1CCD1",
"/. c #D1D1D1",
"(. c #D2D2D2",
"). c #D3D3D3",
"_. c #D8D8D8",
"`. c #DFDFDF",
"'. c #E0CDC5",
"]. c #EDD3C8",
"[. c #E2D4D0",
"{. c #E3DFDE",
"}. c #F2DED8",
"|. c #DFE1DC",
" X c #DEDEE2",
".X c #E0DFE0",
"XX c #DEE4E1",
"oX c #DEE2E5",
"OX c #DDE8E9",
"+X c #DEECF1",
"@X c #DEF2F3",
"#X c #E0E0E0",
"$X c #E2E2E1",
"%X c #E2E0E3",
"&X c #E1E2E2",
"*X c #E2E2E2",
"=X c #E2E2E3",
"-X c #E4E3E3",
";X c #E2E4E2",
":X c #E4E4E1",
">X c #E6E2E4",
",X c #E2E4E6",
"<X c #E5E5E5",
"1X c #E4E8E2",
"2X c #E3E6EB",
"3X c #E2EAEF",
"4X c #E8E8E8",
"5X c #EBEBEB",
"6X c #E9EDE8",
"7X c #EEEEEB",
"8X c #EEEBED",
"9X c #ECECEC",
"0X c #EDEDED",
"qX c #ECECEF",
"wX c #EFEEEF",
"eX c #F5EDE8",
"rX c #F4EFEE",
"tX c #EFF3EF",
"yX c #E5ECF0",
"uX c #E1F2F4",
"iX c #EBF0F0",
"pX c #EEF2F2",
"aX c #ECF6F6",
"sX c #E3F4F9",
"dX c #E1F7FC",
"fX c #E9F5FE",
"gX c #EFF8F9",
"hX c #EDFDFD",
"jX c #F1F1F0",
"kX c #F3F1F0",
"lX c #F1F2F1",
"zX c #F2F3F0",
"xX c #F0F1F2",
"cX c #F3F1F2",
"vX c #F3F0F3",
"bX c #F1F2F2",
"nX c #F2F2F2",
"mX c #F3F3F3",
"MX c #F4F2F0",
"NX c #F4F3F1",
"BX c #F1F4F3",
"VX c #F1F2F5",
"CX c #F4F2F5",
"ZX c #F1F6F6",
"AX c #F6F6F7",
"SX c #F4F6FA",
"DX c #F3FAF9",
"FX c #F6FAFA",
"GX c #F1FAFD",
"HX c #F6F9FD",
"JX c #F1FEFE",
"KX c #F4FEFD",
"LX c #F9FFFF",
"PX c None",
/* pixels */
"PXPXPXPXPXPXPXPXPXPXPXPXPXPXPXPXPXPXPXPXPXPXPXPXPXPXPXPXPXPXPXPXPXPXPXPXPXPXPXPXPXPXPXPXPXPXPXPXPXPXPXPXPXPXPXPXPXPXPXPXPXPXPXPXPXPXPXPXPXPXPXPXPXPXPXPXPXPXPXPXPXPXPXPXPXPXPXPXPXPXPXPXPXPXPXPXPXPXPXPXPXPXPXPXPXPXPXPXPXPXPXPXPXPXPXPXPXPXPXPXPXPXPXPXPXPXPXPXPXPXPXPXPXPXPXPXPXPXPXPXPXPXPXPXPXPXPXPXPXPXPXPXPXPXPXPXPXPXPXPXPXPXPXPX",
"PXPXPXPXPXPXPXPXPXPX=.9 u.g.f.,.5.5.7.5.5.7.7.2.w.h o.PXPXPXPXPXPXPXPXPXPXPXPXPXPXPXPXPXPXPXPXPXPXPXPXPXPXPXPXPXPXPXPXPXPXPXPXPXPXPXPXPXPXPXPXPXPXPXPXPXPXPXPXPXPXPXPXPXPXPXPXPXPXPXPXPXPXPXPXPXPXPXPXPXPXPXPXPXPXPXPXPXPXPXPXPXPXPXPXPXPXPXPXPXPXPXPXPXPXPXPXPXPXPXPXPXPXPXPXPXPXPX+.g f.g.u.;.5.5.5.5.5.5.5.y.3.g %.PXPXPXPXPXPXPXPXPX",
"PXPXPXPXPXPXPXPXg e.g.f.0.<.1.5.8.,.$.r.8.<.7.5.4.t.<.w.g v.PXPXPXPXPXPXPXPXPXPXPXPXPXPXPXPXPXPXPXPXPXPXPXPXPXPXPXPXPXPXPXPXPXPXPXPXPXPXPXPXPXPXPXPXPXPXPXPXPXPXPXPXPXPXPXPXPXPXPXPXPXPXPXPXPXPXPXPXPXPXPXPXPXPXPXPXPXPXPXPXPXPXPXPXPXPXPXPXPXPXPXPXPXPXPXPXPXPXPXPXPXPXPXPXPXPXg f.g.f.5.,.5.5.8.;.$.r.9.5.5.5.5.4.5.3.g PXPXPXPXPXPXPX",
"PXPXPXPXPXPXPX#.:.f.u.,.1.5.5.4.q.r.@.$.q.4.5.5.5.4.4.4.0.j PXPXPXPXPXPXPXPXPXPXPXPXPXPXPXPXPXPXPXPXPXPXPXPXPXPXPXPXPXPXPXPXPXPXPXPXPXPXPXPXPXPXPXPXPXPXPXPXPXPXPXPXPXPXPXPXPXPXPXPXPXPXPXPXPXPXPXPXPXPXPXPXPXPXPXPXPXPXPXPXPXPXPXPXPXPXPXPXPXPXPXPXPXPXPXPXPXPXPXPXPXPXPXPXPXj e.f.y.,.5.5.5.5.8.;.@.r.6.5.5.5.5.5.4.5.3.j PXPXPXPXPXPX",
"PXPXPXPXPXPXPXG.g 0.7.8.5.5.7.4.2.r.@.$.8.5.5.5.5.5.5.0.h d.PXPXPXPXPXPXPXPXPXPXPXPXPXPXPXPXPXPXPXPXPXPXPXPXPXPXPXPXPXPXPXPXPXPXPXPXPXPXPXPXPXPXPXPXPXPXPXPXPXPXPXPXPXPXPXPXPXPXPXPXPXPXPXPXPXPXPXPXPXPXPXPXPXPXPXPXPXPXPXPXPXPXPXPXPXPXPXPXPXPXPXPXPXPXPXPXPXPXPXPXPXPXPXPXPXk.h y.4.1.5.5.5.5.8.;.@.r.6.5.5.5.5.7.<.2.h k.PXPXPXPXPXPX",
"PXPXPXPXPXPXPXPXPXPXj -.8.4.5.5.7.7.5.7.5.5.5.5.t.>.h d.PXPXPXPXPXPXPXPXPXPXPXPXPXPXPXPXPXPXPXPXPXPXPXPXPXPXPXPXPXPXPXPXPXPXPXPXPXPXPXPXPXPXPXPXPXPXPXPXPXPXPXPXPXPXPXPXPXPXPXPXPXPXPXPXPXPXPXPXPXPXPXPXPXPXPXPXPXPXPXPXPXPXPXPXPXPXPXPXPXPXPXPXPXPXPXPXPXPXPXPXPXPXPXPXPXPXPXPXPXk.g >.9.5.7.5.5.5.4.4.5.5.5.7.2.:.j k.PXPXPXPXPXPXPXPX",
"PXPXPXPXPXPXPXPXPXPXPXPXPXPXPXz.#.#.#.#.#.d.J.PXPXPXPXPXPXPXPXPXPXPXPXPXPXPXPXPXPXPXPXPXPXPXPXPXPXPXPXPXPXPXPXPXPXPXPXPXPXPXPXPXPXPXPXPXPXPXPXPXPXPXPXPXPXPXPXPXPXPXPXPXPXPXPXPXPXPXPXPXPXPXPXPXPXPXPXPXPXPXPXPXPXPXPXPXPXPXPXPXPXPXPXPXPXPXPXPXPXPXPXPXPXPXPXPXPXPXPXPXPXPXPXPXPXPXPXPXPXPXJ.d.#.#.#.#.#.d.J.PXPXPXPXPXPXPXPXPXPXPXPXPX",
"PXPXPXPXPXPXPXPXPXPXPXPXa.b.b.b.b.b.b.b.b.b.b.b.a.n.PXPXPXPXPXPXPXPXPXPXPXPXPXPXPXPXPXPXPXPXPXPXPXPXPXPXPXPXPXPXPXPXPXPXPXPXPXPXPXPXPXPXPXPXPXPXPXPXPXPXPXPXPXPXPXPXPXPXPXPXPXPXPXPXPXPXPXPXPXPXPXPXPXPXPXPXPXPXPXPXPXPXPXPXPXPXPXPXPXPXPXPXPXPXPXPXPXPXPXPXPXPXPXPXPXPXPXPXPXPXPXPXPXPXp.b.b.b.b.b.b.b.b.b.b.b.a.PXPXPXPXPXPXPXPXPXPXPX",
"PXPXPXPXPXPXPXPXPXPXPXPXa.p.s.s.s.s.s.s.s.s.s.s.i.n.PXPXPXPXPXPXPXPXPXPXPXPXPXPXPXPXPXPXPXPXPXPXPXPXPXPXPXPXPXPXPXPXPXPXPXPXPXPXPXPXPXPXPXPXPXPXPXPXPXPXPXPXPXPXPXPXPXPXPXPXPXPXPXPXPXPXPXPXPXPXPXPXPXPXPXPXPXPXPXPXPXPXPXPXPXPXPXPXPXPXPXPXPXPXPXPXPXPXPXPXPXPXPXPXPXPXPXPXPXPXPXPXPXPXi.s.s.s.s.s.s.s.s.s.s.s.i.n.PXPXPXPXPXPXPXPXPXPX",
"PXPXPXPXPXPXPXPXPXPXPXPXPXF.M.V.Z.Z.Z.Z.A.Z.N.Z.PXPXPXPXPXPXPXPXPXPXPXPXPXPXPXPXPXPXPXPXPXPXPXPXPXPXPXPXPXPXPXPXPXPXPXPXPXPXPXPXPXPXPXPXPXPXPXPXPXPXPXPXPXPXPXPXPXPXPXPXPXPXPXPXPXPXPXPXPXPXPXPXPXPXPXPXPXPXPXPXPXPXPXPXPXPXPXPXPXPXPXPXPXPXPXPXPXPXPXPXPXPXPXPXPXPXPXPXPXPXPXPXPXPXPXPXPXD.M.V.V.V.V.V.V.V.M.D.PXPXPXPXPXPXPXPXPXPXPXPX",
"PXPXPXPXPXPXPXPXPXPXPXPXPX'.K.Y.(././.~./.~.~./.PXPXPXPXPXPXPXPXPXPXPXPXPXPXPXPXPXPXPXPXPXPXPXPXPXPXPXPXPXPXPXPXPXPXPXPXPXPXPXPXPXPXPXPXPXPXPXPXPXPXPXPXPXPXPXPXPXPXPXPXPXPXPXPXPXPXPXPXPXPXPXPXPXPXPXPXPXPXPXPXPXPXPXPXPXPXPXPXPXPXPXPXPXPXPXPXPXPXPXPXPXPXPXPXPXPXPXPXPXPXPXPXPXPXPXPXPXE.Y.Y.Y.Y.Y.^.^.!.R.).PXPXPXPXPXPXPXPXPXPXPXPX",
"PXPXd.i / [ [ [ [ [ [ | q *.>XgXnXnXnXnXnXnXnXnXbXnXnXnXJXL.t f [ [ [ [ [ [ [ [ [ [ [ O.! , j.GXaXMXCXlXnXnXnXnXnXnXnXVXCXKXG.7 ( ' Y [ [ [ [ [ [ [ [ [ [ ` 8 G.hXAXcXnXnXnXnXnXnXnXnXnXnXZXnXz.8 U { [ [ [ [ [ [ [ [ [ [ X.F t J.JXmXnXnXnXnXnXnXnXnXnXnXtXSXeXd.7 | [ [ [ [ [ [ [ [ [ [ [ | s m L.hXBXnXnXnXnXnXnXnXnXbXMXjXGXeX*.t PX",
"PXPXd.i / [ [ [ '  .e %.}.DXtXbXnXnXnXnXnXnXnXnXvXVXKXI.u d R  .[ [ [ [ [ [ [ [ ' X.! 8 =.AXSXtXnXnXnXnXnXnXnXnXcXbXzXKXJ.q Y } [ [ [ [ [ [ [ [ [ [ { Y 8 x.JXAXzXxXcXnXnXnXnXnXnXnXbXmXZXv., R R ` [ [ [ [ [ [ [ [ Y { F q J.KXmXVXnXnXnXnXnXnXnXnXCXzXZXNXk.7 ! H ..[ [ [ [ [ [ [ { ` | H e L.JXcXnXnXnXnXnXnXnXnXbXmXkXSXaX=.8 m +.PX",
"PXPXk.t f ` O.R q +.}.HXMXnXnXnXnXnXnXnXnXVXCXNXLX].a s | ' ' ' ' ' ' ' ' ' ' _ ! , *.aXHXMXmXlXnXnXnXnXnXnXnXBXrXKXL.8 d ' _ ' ' ' ' ' ' ' ' _ U R , k.LXgXtXnXnXnXnXnXnXnXnXVXMXMXDXG.7 o.[ ' ' ' ' ' ' ' ' ' ' ' Y 7 G.KXzXbXnXnXnXnXnXnXnXnXnXnXZXaXl., U ' ' ' ' ' ' ' ' ' ' ' ` ` 8 J.KXrXjXnXnXnXnXnXnXnXnXbXrXgXFXd., ' U i +.PX",
"PXPXj.5 x A 4 c P.3X&X*X$X&X*X*X*X*X*X*X$X%XsX'.b r B C C C C C C C C C C C l > z `.+X{.&X*X*X*X*X*X*X*X=X&X{.dXK.* y b C C C C C C C C C C C C : =.3X3X$X&X&X*X*X*X*X*X*X*X$X%XuXG.% v B C Z C C C C C C C B A Z > l.@X,X%X&X*X*X*X*X*X*X*X&X{.oX+Xl.& C Z C C C C C C C C C Z b x * G.sXoX%X&X*X*X*X*X*X*X*X&X#XOXyXh.: A N C N 5 z PX",
"PXPXj.4 0 M K.OX*X=X*X*X*X*X*X*X*X=X{.`.@X'.z 5 n k C C C C C C C C C B A 3 z [.3X*X=X*X*X*X*X*X*X*X*X=X*XsXK.0 y C N C C C C C C C C C B n & =.2X+X.X{.*X*X*X*X*X*X*X*X=X$X@XH.< x B k C C C C C C C C A B B < h.+X2XXX*X*X*X*X*X*X*X*X*X=X,XuXc.> k v C C C C C C C C C C C V 6 c.@X,X*X*X$X*X*X*X*X*X*X=X=X2XuXh.: B C C C C N 5 z PX",
"PXPXd.4 K.3X=X;X*X*X*X&X-X&X*X&X*X$XuX[.%.0 V V B B B B B B B B B V S 6 W '.3X&X%X$X*X*X*X*X*X*X*X&X|.sXP.y r M N B B B B B B B B V V A 6 %.-X+X X&X&X*X*X*X*X*X&X%X&X:XsXH.6 y V C B B B B B B B B B N v 2 h.3X2X$X*X*X*X*X*X*X*X*X*X=X$X@XG.: N C C C C C C C C C C V E c 2 c.+XoX>X=X*X*X*X*X*X*X*X;X|.%XuXc.$ V B V C C C C N 5 z PX",
"PXPXPXPXPXPXPXPXPXPXPXPXPXU.Z.D.D.D.B.S.S.S.S.S.PXPXPXPXPXPXPXPXPXPXPXPXPXPXPXPXPXPXPXPXPXPXPXPXPXPXPXPXPXPXPXPXPXPXPXPXPXPXPXPXPXPXPXPXPXPXPXPXPXPXPXPXPXPXPXPXPXPXPXPXPXPXPXPXPXPXPXPXPXPXPXPXPXPXPXPXPXPXPXPXPXPXPXPXPXPXPXPXPXPXPXPXPXPXPXPXPXPXPXPXPXPXPXPXPXPXPXPXPXPXPXPXPXPXPXPXnXF.D.F.F.F.F.F.F.D.&.S.PXPXPXPXPXPXPXPXPXPXPXPX",
"PXPXPXPXPXPXPXPXPXPXPXPXPX&X~.~.~./.~.~.!.!.~.).PXPXPXPXPXPXPXPXPXPXPXPXPXPXPXPXPXPXPXPXPXPXPXPXPXPXPXPXPXPXPXPXPXPXPXPXPXPXPXPXPXPXPXPXPXPXPXPXPXPXPXPXPXPXPXPXPXPXPXPXPXPXPXPXPXPXPXPXPXPXPXPXPXPXPXPXPXPXPXPXPXPXPXPXPXPXPXPXPXPXPXPXPXPXPXPXPXPXPXPXPXPXPXPXPXPXPXPXPXPXPXPXPXPXPXPXPX_.~.~.~.~.~.~./.~.~._.PXPXPXPXPXPXPXPXPXPXPXPX",
"PXPXPXPXPXPXPXPXPXPXPXPXPX#XR.E.W.W.W.W.W.W.E.Q.PXPXPXPXPXPXPXPXPXPXPXPXPXPXPXPXPXPXPXPXPXPXPXPXPXPXPXPXPXPXPXPXPXPXPXPXPXPXPXPXPXPXPXPXPXPXPXPXPXPXPXPXPXPXPXPXPXPXPXPXPXPXPXPXPXPXPXPXPXPXPXPXPXPXPXPXPXPXPXPXPXPXPXPXPXPXPXPXPXPXPXPXPXPXPXPXPXPXPXPXPXPXPXPXPXPXPXPXPXPXPXPXPXPXPXPXPX).T.W.W.W.W.W.W.W.T.(.PXPXPXPXPXPXPXPXPXPXPXPX",
"PXPXx.1 , 8 e e e e e e q ; ^ }.KXAXAXAXAXAXAXAXnXlXnXcXxXKXL.w 8 e e e e e e e e e e e e i - =.jXZXvXlXnXnXnXnXnXnXnXlXnXBXKXG.; t i i i i i i i i i i i i p - z.hXZXnXnXnXnXnXnXnXnXnXnXmXZXhXk.; p p p p p p p p p p p p m u 1 J.hXCXvXnXmXmXmXmXmXmXmXVXnXSXCX=.1 d s a a a a a a a p s a a i q L.KXCXmXmXmXjXlXmXmXmXmXmXnXHX}.z.PX",
"PXPXv.a f [ [ [ ' { R e *.}.BXzXcXnXnXnXnXnXnXnXbXzXlXKXI.F / U [ [ [ [ [ [ [ [ [ [ [ Y 1 d.eXSXjXlXnXnXnXnXnXnXnXnXnXnXJXJ.e / [ [ [ [ [ [ [ [ [ [ ..H ) 7 x.DXZXzXnXnXnXnXnXnXnXnXcXkXgXKXx., F H [ [ [ [ [ [ [ [ [ | X.F 8 J.KXBXbXnXnXnXnXnXnXnXnXxXlXSXZXd.7 ..` [ [ [ [ [ [ [ [ [ [ R f t L.JXBXBXnXnXnXnXnXnXnXnXnXkXgXrX=.; ^ PX",
"PXPXv.a a [ [ [ O.e +.].ZXjXnXcXnXnXnXnXnXnXnXnXnXKXI.! a ] [ Y [ [ [ [ [ [ [ X._ ! 7 =.eXZXlXcXnXnXnXnXnXnXnXnXmXzXKXL.q / X.Y [ [ [ [ [ [ [ [ ' R | 7 k.gXAXlXnXnXnXnXnXnXnXnXVXnXCXKXG.8 I { [ [ [ [ [ [ [ [ [ [ X.G 7 G.JXMXVXmXnXnXnXnXnXnXnXnXxXCXZXk.7 J [ T { [ [ [ [ [ [ [ } T / q J.LXaXnXbXnXnXnXnXnXnXnXnXjXSXrXd.7 Y p +.PX",
"PXPXv.c c K Q w ^ I.wX8X6X5X5X5X9X9X9X9X9XqX8XhX].%.u J L K K K K K P P P P P L q *.}.xX9X9X9X9X9X9X9X9X9X0X0X9XhXL.u c K P P P P P P P P P P I T 7 d.aXpX0X0X0X0X0X0X0X0X0X0XwXiXgXJ.7 H T P I T T T T T T T G Q I 7 x.JXtXiXwXwXwXwXwXwXwXwXwX7XpXBXx.7 D Y T T T T T T T T T T I ] q G.JXpXwXjXwXwXwXwXwXwXwXwXtXVXiXj., ~ T H u ^ PX",
"PXPXx.y y r S K.2X,X=X*X*X*X*X*X*X*X*X*X$X@X'.%.5 x B C C C C C C C C C C b 3 %.[.3X=X$X$X*X*X*X*X*X*X*X&X;XsXK.y x B B C C C C C C C C C N v < =.1X,XXX-X*X*X*X*X*X*X*X-X{.oXdXH.% x k Z C C C C C C C C C C k : h.uX,X&X*X*X*X*X*X*X*X*X*X&X>XsXc.: N N C C C C C C C C C Z V n * c.sXoX{.:X=X*X*X*X*X*X*X-XXXXX@Xj.< c k S C N 5 z PX",
"PXPXG.0 y H.OXOX#X;X*X*X*X*X*X*X*X*X&X3X[.%.4 x A C C C C C C C C C C C 0 z '.3X*X$X*X*X*X*X*X*X*X$X*X$XsXP.c y M B C C C C C C C C C C E 3 %.,X+X#X*X*X*X*X*X*X*X*X*X*XoXfXK.$ c C C C C C C C C C C C n S > h.uX2X|.oX*X*X*X*X*X*X*X*X:X{.dXc.$ k b N C C C C C C C C C B A $ c.dX*X&X*X*X*X*X*X*X*X*X*X&X;XsXl.# k x Z C C C N 5 z PX",
"PXPXPXH. XOX`..X#X#X#X`.`.-X4X4X4XaX].%.< r r r 6 3 3 3 3 3 3 3 3 * # x P.OX.X`.`.`.`.`.`.`.`.`.`.|.+XK.= # & & & & & & & & & & & * : @ z .X+X{. X`.`.`.#X#X#X#X.X|.oXuXH.@ # = & 2 2 2 2 2 2 2 2 2 2 2 @ =.+X%X|.`.`.`.`.`.`.`.`.`.`. XuXc.@ % 3 3 3 3 3 3 3 3 3 3 3 3 % @ h.@X X|. X#X#X<X4X4X4X4X4X4XyXaXl.: 2 4 = 3 3 3 3 3 6 @ l PX",
"PXPXPXPXPXPXPXPXPXPXPXPXPXT.Z.C.A.A.A.A.A.A.Z.A.PXPXPXPXPXPXPXPXPXPXPXPXPXPXPXPXPXPXPXPXPXPXPXPXPXPXPXPXPXPXPXPXPXPXPXPXPXPXPXPXPXPXPXPXPXPXPXPXPXPXPXPXPXPXPXPXPXPXPXPXPXPXPXPXPXPXPXPXPXPXPXPXPXPXPXPXPXPXPXPXPXPXPXPXPXPXPXPXPXPXPXPXPXPXPXPXPXPXPXPXPXPXPXPXPXPXPXPXPXPXPXPXPXPXPXPXPXD.M.B.B.B.B.B.B.C.M.D.PXPXPXPXPXPXPXPXPXPXPXPX",
"PXPXPXPXPXPXPXPXPXPXPXPXPXPXE.R.W.W.W.W.W.W.E.W.PXPXPXPXPXPXPXPXPXPXPXPXPXPXPXPXPXPXPXPXPXPXPXPXPXPXPXPXPXPXPXPXPXPXPXPXPXPXPXPXPXPXPXPXPXPXPXPXPXPXPXPXPXPXPXPXPXPXPXPXPXPXPXPXPXPXPXPXPXPXPXPXPXPXPXPXPXPXPXPXPXPXPXPXPXPXPXPXPXPXPXPXPXPXPXPXPXPXPXPXPXPXPXPXPXPXPXPXPXPXPXPXPXPXPXPXPX).U.W.W.W.W.W.W.W.T./.PXPXPXPXPXPXPXPXPXPXPXPX",
"PXPXPXPXPXPXPXPXPXPXPXPXPXPXE.R.W.W.W.W.W.W.E.W.PXPXPXPXPXPXPXPXPXPXPXPXPXPXPXPXPXPXPXPXPXPXPXPXPXPXPXPXPXPXPXPXPXPXPXPXPXPXPXPXPXPXPXPXPXPXPXPXPXPXPXPXPXPXPXPXPXPXPXPXPXPXPXPXPXPXPXPXPXPXPXPXPXPXPXPXPXPXPXPXPXPXPXPXPXPXPXPXPXPXPXPXPXPXPXPXPXPXPXPXPXPXPXPXPXPXPXPXPXPXPXPXPXPXPXPXPX).U.W.W.W.W.W.W.W.T./.PXPXPXPXPXPXPXPXPXPXPXPX",
"PXPXPXPXPXPXPXPXPXPXPXPXPXPXE.R.W.W.W.W.W.W.E.W.PXPXPXPXPXPXPXPXPXPXPXPXPXPXPXPXPXPXPXPXPXPXPXPXPXPXPXPXPXPXPXPXPXPXPXPXPXPXPXPXPXPXPXPXPXPXPXPXPXPXPXPXPXPXPXPXPXPXPXPXPXPXPXPXPXPXPXPXPXPXPXPXPXPXPXPXPXPXPXPXPXPXPXPXPXPXPXPXPXPXPXPXPXPXPXPXPXPXPXPXPXPXPXPXPXPXPXPXPXPXPXPXPXPXPXPXPX).U.W.W.W.W.W.W.W.T./.PXPXPXPXPXPXPXPXPXPXPXPX",
"PXPXPXPXPXPXPXPXPXPXPXPXPXPXW.R.W.W.W.W.W.W.E.W.PXPXPXPXPXPXPXPXPXPXPXPXPXPXPXPXPXPXPXPXPXPXPXPXPXPXPXPXPXPXPXPXPXPXPXPXPXPXPXPXPXPXPXPXPXPXPXPXPXPXPXPXPXPXPXPXPXPXPXPXPXPXPXPXPXPXPXPXPXPXPXPXPXPXPXPXPXPXPXPXPXPXPXPXPXPXPXPXPXPXPXPXPXPXPXPXPXPXPXPXPXPXPXPXPXPXPXPXPXPXPXPXPXPXPXPXPX).U.W.W.W.W.W.W.W.T./.PXPXPXPXPXPXPXPXPXPXPXPX",
"PXPXPXPXPXPXPXPXPXPXPXPXPXPXW.R.W.W.W.W.W.W.E.W.PXPXPXPXPXPXPXPXPXPXPXPXPXPXPXPXPXPXPXPXPXPXPXPXPXPXPXPXPXPXPXPXPXPXPXPXPXPXPXPXPXPXPXPXPXPXPXPXPXPXPXPXPXPXPXPXPXPXPXPXPXPXPXPXPXPXPXPXPXPXPXPXPXPXPXPXPXPXPXPXPXPXPXPXPXPXPXPXPXPXPXPXPXPXPXPXPXPXPXPXPXPXPXPXPXPXPXPXPXPXPXPXPXPXPXPXPX).U.W.W.W.W.W.W.W.T./.PXPXPXPXPXPXPXPXPXPXPXPX",
"PXPXPXPXPXPXPXPXPXPXPXPXPXPXW.R.W.W.W.W.W.W.E.W.PXPXPXPXPXPXPXPXPXPXPXPXPXPXPXPXPXPXPXPXPXPXPXPXPXPXPXPXPXPXPXPXPXPXPXPXPXPXPXPXPXPXPXPXPXPXPXPXPXPXPXPXPXPXPXPXPXPXPXPXPXPXPXPXPXPXPXPXPXPXPXPXPXPXPXPXPXPXPXPXPXPXPXPXPXPXPXPXPXPXPXPXPXPXPXPXPXPXPXPXPXPXPXPXPXPXPXPXPXPXPXPXPXPXPXPXPX).U.W.W.W.W.W.W.W.T./.PXPXPXPXPXPXPXPXPXPXPXPX",
"PXPXPXPXPXPXPXPXPXPXPXPXPXPXW.R.W.W.W.W.W.W.E.W.PXPXPXPXPXPXPXPXPXPXPXPXPXPXPXPXPXPXPXPXPXPXPXPXPXPXPXPXPXPXPXPXPXPXPXPXPXPXPXPXPXPXPXPXPXPXPXPXPXPXPXPXPXPXPXPXPXPXPXPXPXPXPXPXPXPXPXPXPXPXPXPXPXPXPXPXPXPXPXPXPXPXPXPXPXPXPXPXPXPXPXPXPXPXPXPXPXPXPXPXPXPXPXPXPXPXPXPXPXPXPXPXPXPXPXPXPX).U.W.W.W.W.W.W.W.T./.PXPXPXPXPXPXPXPXPXPXPXPX",
"PXPXPXPXPXPXPXPXPXPXPXPXPXPXW.R.W.W.W.W.W.W.E.W.PXPXPXPXPXPXPXPXPXPXPXPXPXPXPXPXPXPXPXPXPXPXPXPXPXPXPXPXPXPXPXPXPXPXPXPXPXPXPXPXPXPXPXPXPXPXPXPXPXPXPXPXPXPXPXPXPXPXPXPXPXPXPXPXPXPXPXPXPXPXPXPXPXPXPXPXPXPXPXPXPXPXPXPXPXPXPXPXPXPXPXPXPXPXPXPXPXPXPXPXPXPXPXPXPXPXPXPXPXPXPXPXPXPXPXPXPX).U.W.W.W.W.W.W.W.T./.PXPXPXPXPXPXPXPXPXPXPXPX",
"PXPXPXPXPXPXPXPXPXPXPXPXPXPXW.R.W.W.W.W.W.W.E.W.PXPXPXPXPXPXPXPXPXPXPXPXPXPXPXPXPXPXPXPXPXPXPXPXPXPXPXPXPXPXPXPXPXPXPXPXPXPXPXPXPXPXPXPXPXPXPXPXPXPXPXPXPXPXPXPXPXPXPXPXPXPXPXPXPXPXPXPXPXPXPXPXPXPXPXPXPXPXPXPXPXPXPXPXPXPXPXPXPXPXPXPXPXPXPXPXPXPXPXPXPXPXPXPXPXPXPXPXPXPXPXPXPXPXPXPXPX).U.W.W.W.W.W.W.W.T./.PXPXPXPXPXPXPXPXPXPXPXPX",
"PXPXPXPXPXPXPXPXPXPXPXPXPXPXQ.R.W.W.W.W.W.W.E.W.PXPXPXPXPXPXPXPXPXPXPXPXPXPXPXPXPXPXPXPXPXPXPXPXPXPXPXPXPXPXPXPXPXPXPXPXPXPXPXPXPXPXPXPXPXPXPXPXPXPXPXPXPXPXPXPXPXPXPXPXPXPXPXPXPXPXPXPXPXPXPXPXPXPXPXPXPXPXPXPXPXPXPXPXPXPXPXPXPXPXPXPXPXPXPXPXPXPXPXPXPXPXPXPXPXPXPXPXPXPXPXPXPXPXPXPXPX).U.W.W.W.W.W.W.W.T./.PXPXPXPXPXPXPXPXPXPXPXPX",
"PXPXPXPXPXPXPXPXPXPXPX+ o O O O O O O O O O O O O o + PXPXPXPXPXPXPXPXPXPXPXPXPXPXPXPXPXPXPXPXPXPXPXPXPXPXPXPXPXPXPXPXPXPXPXPXPXPXPXPXPXPXPXPXPXPXPXPXPXPXPXPXPXPXPXPXPXPXPXPXPXPXPXPXPXPXPXPXPXPXPXPXPXPXPXPXPXPXPXPXPXPXPXPXPXPXPXPXPXPXPXPXPXPXPXPXPXPXPXPXPXPXPXPXPXPXPXPXPXPXPXPXo O O O O O O O O O O O O O o F.PXPXPXPXPXPXPXPXPX",
"PXPXPXPXPXPXm.X X X X X X X X X X X X X X X X X X X X X X X . + PXPXPXPXPXPXPXPXPXPXPXPXPXPXPXPXPXPXPXPXPXPXPXPXPXPXPXPXPXPXPXPXPXPXPXPXPXPXPXPXPXPXPXPXPXPXPXPXPXPXPXPXPXPXPXPXPXPXPXPXPXPXPXPXPXPXPXPXPXPXPXPXPXPXPXPXPXPXPXPXPXPXPXPXPXPXPXPXPXPXPXPXPXPXPXPXPXPXPXPXPXPX.   . . . . . . . . . . . . . . . . . . . . . .   PXPXPXPXPX"
};
