/* XPM */
static char *oil_spill_xpm[] = {
/* columns rows colors chars-per-pixel */
"120 54 229 2 ",
"   c #000000",
".  c #010101",
"X  c #020202",
"o  c #808080",
"O  c #040404",
"+  c #848484",
"@  c #060606",
"#  c #070707",
"$  c #080808",
"%  c #090909",
"&  c #0A0A0A",
"*  c #0B0B0B",
"=  c #0C0C0C",
"-  c #0D0D0D",
";  c #0E0E0E",
":  c #0F0F0F",
">  c #101010",
",  c #111111",
"<  c #121211",
"1  c #121212",
"2  c #131313",
"3  c #141414",
"4  c #151515",
"5  c #161616",
"6  c #171717",
"7  c #181818",
"8  c #191919",
"9  c #1A1A1A",
"0  c #1B1B1B",
"q  c #1B1B1C",
"w  c #1C1C1C",
"e  c #1D1D1D",
"r  c #1E1E1E",
"t  c #1F1F1F",
"y  c #202020",
"u  c #212121",
"i  c #222222",
"p  c #232323",
"a  c #242424",
"s  c #252525",
"d  c #262626",
"f  c #262627",
"g  c #272727",
"h  c #282828",
"j  c #282829",
"k  c #292929",
"l  c #2A2A2A",
"z  c #2A2A2B",
"x  c #2B2B2B",
"c  c #2B2B2C",
"v  c #2B2B2D",
"b  c #2C2C2C",
"n  c #2D2D2C",
"m  c #2C2C2D",
"M  c #2D2D2D",
"N  c #2E2E2D",
"B  c #2D2D2E",
"V  c #2E2E2E",
"C  c #2F2F2E",
"Z  c #2E2E2F",
"A  c #2F2F2F",
"S  c #30302F",
"D  c #303030",
"F  c #313130",
"G  c #303031",
"H  c #313131",
"J  c #323231",
"K  c #323232",
"L  c #323233",
"P  c #333333",
"I  c #343432",
"U  c #343433",
"Y  c #353533",
"T  c #333334",
"R  c #343434",
"E  c #353534",
"W  c #353535",
"Q  c #363636",
"!  c #373737",
"~  c #383837",
"^  c #393937",
"/  c #383838",
"(  c #393939",
")  c #3A3A38",
"_  c #3A3A39",
"`  c #3A3A3A",
"'  c #3D3D3B",
"]  c #3E3E3B",
"[  c #3C3C3C",
"{  c #3D3D3C",
"}  c #3D3D3D",
"|  c #3E3E3C",
" . c #3F3F3C",
".. c #3E3E3D",
"X. c #3F3F3D",
"o. c #3E3E3E",
"O. c #3F3F3E",
"+. c #3F3F3F",
"@. c #40403D",
"#. c #40403E",
"$. c #41413E",
"%. c #404040",
"&. c #414141",
"*. c #424242",
"=. c #434343",
"-. c #454542",
";. c #444444",
":. c #454545",
">. c #464646",
",. c #474747",
"<. c #484848",
"1. c #494949",
"2. c #4A4A4A",
"3. c #4B4B4B",
"4. c #4C4C4C",
"5. c #4D4D4D",
"6. c #4E4E4E",
"7. c #4F4F4F",
"8. c #505050",
"9. c #515151",
"0. c #525252",
"q. c #535353",
"w. c #545454",
"e. c #555555",
"r. c #565656",
"t. c #575757",
"y. c #585858",
"u. c #595959",
"i. c #5A5A5A",
"p. c #5B5B5B",
"a. c #5C5C5C",
"s. c #5D5D5D",
"d. c #5E5E5E",
"f. c #5F5F5F",
"g. c #606060",
"h. c #616161",
"j. c #626262",
"k. c #636363",
"l. c #646464",
"z. c #656565",
"x. c #666666",
"c. c #676767",
"v. c #686868",
"b. c #696969",
"n. c #6A6A6A",
"m. c #6B6B6B",
"M. c #6C6C6C",
"N. c #6F6F6F",
"B. c #707070",
"V. c #717171",
"C. c #727272",
"Z. c #737373",
"A. c #747474",
"S. c #757575",
"D. c #767676",
"F. c #777777",
"G. c #797979",
"H. c #7B7B7B",
"J. c #7D7D7D",
"K. c #7E7E7E",
"L. c #808080",
"P. c #818181",
"I. c #828282",
"U. c #838383",
"Y. c #868686",
"T. c #888888",
"R. c #898989",
"E. c #8B8B8B",
"W. c #8C8C8C",
"Q. c #8D8D8D",
"!. c #8E8E8E",
"~. c #919191",
"^. c #929292",
"/. c #939393",
"(. c #949494",
"). c #959595",
"_. c #969696",
"`. c #979797",
"'. c #999999",
"]. c #9A9A9A",
"[. c #9B9B9B",
"{. c #9E9E9E",
"}. c #A0A0A0",
"|. c #A7A7A7",
" X c #AAAAAA",
".X c #ACACAC",
"XX c #AFAFAF",
"oX c #B1B1B1",
"OX c #B2B2B2",
"+X c #B3B3B3",
"@X c #B4B4B4",
"#X c #B5B5B5",
"$X c #B6B6B6",
"%X c #B7B7B7",
"&X c #B8B8B8",
"*X c #B9B9B9",
"=X c #BABABA",
"-X c #BBBBBB",
";X c #BCBCBC",
":X c #BFBFBF",
">X c #C0C0C0",
",X c #C3C3C3",
"<X c #C5C5C5",
"1X c #C6C6C6",
"2X c #C7C7C7",
"3X c #CBCBCB",
"4X c #CCCCCC",
"5X c #CDCDCD",
"6X c #CFCFCF",
"7X c #D1D1D1",
"8X c #D2D2D2",
"9X c #D5D5D5",
"0X c #D7D7D7",
"qX c #DCDCDC",
"wX c #DFDFDF",
"eX c #E1E1E1",
"rX c #E2E2E2",
"tX c #E6E6E6",
"yX c #E7E7E7",
"uX c #E9E9E9",
"iX c #EAEAEA",
"pX c #ECECEC",
"aX c #EFEFEF",
"sX c #F6F6F6",
"dX c #F8F8F8",
"fX c #F9F9F9",
"gX c #FEFEFE",
"hX c #FFFFFF",
"jX c None",
/* pixels */
"jXjXjXjXjXjXjXjXjXjXjXjXjXjXjXjXjXjXjXjXjXjXjXjXjXjXjXjXjXjXjXjXjXjXjXjXjXjXjXjXjXjXjXjXjXjXjXjXjXjXjXjXjXjXjXjXjXjXjXjXjXjXjXjXjXjXjXjXjXjXjXjXn.z.*.l r 4 , > : 1 5 w a x / ,.a.e.jXjXjXjXjXjXjXjXjXjXjXjXjXjXjXjXjXjXjXjXjXjXjXjXjXjXjXjXjXjX",
"jXjXjXjXjXjXjXjXjXjXjXjXjXjXjXjXjXjXjXjXjXjXjXjXjXjXjXjXjXjXjXjXjXjXjXjXjXjXjXjXjXjXjXjXjXjXjXjXjXjXjXjXjXjXjXjXjXjXjXjXjXjXjXjXjXjXjXjXH *                                               X 3 ` r.jXjXjXjXjXjXjXjXjXjXjXjXjXjXjXjXjXjXjXjXjXjXjX",
"jXjXjXjXjXjXjXjXjXjXjXjXjXjXjXjXjXjXjXjXjXjXjXjXjXjXjXjXjXjXjXjXjXjXjXjXjXjXjXjXjXjXjXjXjXjXjXjXjXjXjXjXjXjXjXjXjXjXjXjXjXjXjXjXjXjX@     X & - : : : > > , < < 1 1 1 > ; = & $ # $ % $ X             8 t.jXjXjXjXjXjXjXjXjXjXjXjXjXjXjXjXjXjXjX",
"jXjXjXjXjXjXjXjXjXjXjXjXjXjXjXjXjXjXjXjXjXjXjXjXjXjXjXjXjXjXjXjXjXjXjXjXjXjXjXjXjXjXjXjXjXjXjXjXjXjXjXjXjXjXjXjXjXjXjXjXjXjXjXjXjX    O r i y e t a h x V G L T T P P K H A x d p w 6 1 , 3 2 > - @         @ 1.jXjXjXjXjXjXjXjXjXjXjXjXjXjXjXjX",
"jXjXjXjXjXjXjXjXjXjXjXjXjXjXjXjXjXjXjXjXjXjXjXjXjXjXjXjXjXjXjXjXjXjXjXjXjXjXjXjXjXjXjXjXjXjXjXjXjXjXjXjXjXjXjXjXjXjXjXjXjXjXjXjXjX    $ u 0 w a x A V M b b m v b V V V V A D K P D x s w > , 5 5 6 3 %           4 jXjXjXjXjXjXjXjXjXjXjXjXjXjX",
"jXjXjXjXjXjXjXjXjXjXjXjXjXjXjXjXjXjXjXjXjXjXjXjXjXjXjXjXjXjXjXjXjXjXjXjXjXjXjXjXjXjXjXjXjXjXjXjXjXjXjXjXjXjXjXjXjXjXjXjXjXjXjXjXjX    . 0 e s P M c H U I U P F C x x b M M M M M V D K P s 2 , 2 1 4 8 %     . .     5 jXjXjXjXjXjXjXjXjXjXjXjX",
"jXjXjXjXjXjXjXjXjXjXjXjXjXjXjXjXjXjXjXjXjXjXjXjXjXjXjXjXjXjXjXjXjXjXjXjXjXjXjXjXjXjXjXjXjXjXjXjXjXjXjXjXjXjXjXjXjXjXjXjXjXjXjXjXjXM     = t p D A ^ X.#.X.X.@. .' ) Y B z M M M M M M b M W s : 2 3 5 5 $                 F.jXjXjXjXjXjXjXjXjXjX",
"jXjXjXjXjXjXjXjXjXjXjXjXjXjXjXjXjXjXjXjXjXjXjXjXjXjXjXjXjXjXjXjXjXjXjXjXjXjXjXjXjXjXjXjXjXjXjXjXjXjXjXjXjXjXjXjXjXjXjXjXjXjXjXjXjXx       3 r y ~ -.@.] ' ' ' { | @.$...U N A D A A A A A K D 6 3 2 - o                 , ! jXjXjXjXjXjXjXjXjXjX",
"jXjXjXjXjXjXjXjXjXjXjXjXjXjXjXjXjXjXjXjXjXjXjXjXjXjXjXjXjXjXjXjXjXjXjXjXjXjXjXjXjXjXjXjXjXjXjXjXjXjXjXjXjXjXjXjXjXjXjXjXjXjXjXjXjX    .   + 0 q n Y _ | O.#.@.X...| { | @.S f h h h h h g b i $ .       . o X X .       b '.A jXjXjXjXjXjXjXjXjX",
"jXjXjXjXjXjXjXjXjXjXjXjXjXjXjXjXjXjXjXjXjXjXjXjXjXjXjXjXjXjXjXjXjXjXjXa.0.>.%.o.o.&.:.6.f.r.y.jXjXjXjXjXjXjXjXjXjXjXjXjXjXjXjXE.w           6 u b b b A K E I J H H A V P i 7 9 9 9 0 e y 0 o   + 6 a l k l x h k l.P.!.3XP.  jXjXjXjXjXjXjXjXjX",
"jXjXjXjXjXjXjXjXjXjXjXjXjXjXjXjXjXjXjXjXjXjXjXjXjXjXjXjXjXjXjXjXjX,                                 4 a ( t.f.l.jXjXjXjXh.e.A + #     .   o 8 e x A m x l l z z l l b D j 9 0 r u y r 0 2 +   + x P a 4 , , 3 6 0 w.U./.k.>   jXjXjXjXjXjXjXjXjX",
"jXjXjXjXjXjXjXjXjXjXjXjXjXjXjXjXjXjXjXjXjXjXjXjXjXjXjXjXjXjXjXjXw                                                           . .           4 y 9 k A M M M M B Z B A H g e t t 8 2 = # X       + b M #                   .     jXjXjXjXjXjXjXjXjX",
"jXjXjXjXjXjXjXjXjXjXjXjXjXjXjXjXjXjXjXjXjXjXjXjXjXjXjXjXjXjXjXjXr.  +           $ 3 5 4 5 5 5 4 2 , ; * # o                       . O * 8 t w w x A M M M M M M D M a r 7 > #                   > H 1 0 k.M.a.o.s *         k.jXjXjXjXjXjXjXjXjX",
"jXjXjXjXjXjXjXjXjXjXjXjXjXjXjXjXjXjXjXjXjXjXjXjXjXjXjXjXjXjXjXjXjXy #         O r i y y t t t y u u y y y t e 0 8 7 6 5 4 4 4 6 7 8 w u y 0 9 t A V M M M M M A b r 8 =                         & b 8 ;.jXjXjXjXjXjXjXjXjXjXjXjXjXjXjXjXjXjXjXjX",
"jXjXjXjXjXjXjXjXjXjXjXjXjXjXjXjXjXjXjXjXjXjXjXjXjXjXjXjXjXjXjXjXjXjX0 &       = u w w w e w w w w 0 0 w w e e e r t t t y y y t t r e w w w 7 s D M M M M M V A y e ;             % a k h d i r s k x 4 s jXjXjXjXjXjXjXjXjXjXjXjXjXjXjXjXjXjXjX",
"jXjXjXjXjXjXjXjXjXjXjXjXjXjXjXjXjXjXjXjXjXjXjXjXjXjXjXjXjXjXjXjXjXjXjX= .     * y w w w w w w w 9 8 8 8 8 9 0 w w w w w w w w w w w w w w 8 r V V M M M M M V A t r :           3 d a t y a b H A b V D   6.jXjXjXjXjXjXjXjXjXjXjXjXjXjXjXjXjXjX",
"jXjXjXjXjXjXjXjXjXjXjXjXjXjXjXjXjXjXjXjXjXjXjXjXjXjXjXjXjXjXjXjXjXjXjXr       % t w w w w w 8 9 t p s a a y 0 8 0 w 0 w w w w w w w 0 0 7 e b D M M M M M M M D g 0 0 o   .   - p @           + ; 1 1 :     jXjXjXjXjXjXjXjXjXjXjXjXjXjXjXjXjXjX",
"jXjXjXjXjXjXjXjXjXjXjXjXjXjXjXjXjXjXjXjXjXjXjXjXjXjXjXjXjXjXjXjXjXjXj.    .   ; y 0 w w 9 8 u l A D D D D V x a e 8 8 0 0 w w 0 0 9 8 8 u M D M M M M M M M M M D i r 6       # #     * 2 %               X jXjXjXjXjXjXjXjXjXjXjXjXjXjXjXjXjXjX",
"jXjXjXjXjXjXjXjXjXjXjXjXjXA.6.&.` / ` =.4.n.jXjXjXjXjXjXjXjXjXjXn.6         + 0 r w w 0 0 g D D V M M M M V V H M d y e 0 9 9 0 0 e p k A V M M M M M M M M M M A A t y 5         w 7XhXhXhXaX<X_.A.a.i.B.jXjXjXjXjXjXjXjXjXjXjXjXjXjXjXjXjXjXjX",
"jXjXjXjXjXjXjXjX+.5 o                             # ; - ; +             X = w t w e 0 7 g H M M M M M M M M M M V D A b l h h k l M D A M M M M M M M M M M M M M D l 9 u 8 +     > c.^.#X5XwXdXhXgXsXtXjXjXjXjXjXjXjXjXjXjXjXjXjXjXjXjXjXjXjXjX",
"jXjXjXjXjX1.@                                                   + * : 5 0 y t w w w 9 y D V M M M M M M M M M M M M V V A A A A A V M M M M M M M M M M M M M M M K x 9 0 u y 1 O               . + # X     . .         X @ = x s.jXjXjXjXjXjXjX",
"jXjXjX0.        . . .       .                   . X + $ = > 4 9 r y u y e 0 w w w w 9 d H M M M M M M M M M M M M M M M V V M M M M M A D D A A A A A D D D D D A l e 7 8 7 9 t 0 1 % .                                             t jXjXjXjXjX",
"jXjXK     .                 .     % , 2 2 2 3 6 8 0 e t y y y r e w w w w w w w w w 8 h H M M M M M M M M M M M M M M M M M M M A D M k d i i i i p s g g g g i t 0 r u i p i u i a i e 5 , = # + @ # * : , 1 1 1 1 2 > : = +         X 6.jXjXjX",
"jXo.    . .                     > p i u y t t t r r e w w w w w w w w w w w w w w w 8 a D M M M M M M M M M M M M M M M M M A A x a r 9 8 8 8 8 8 8 9 8 8 7 8 p k x V A D D D A A M M V K P H V x d t 4 1 4 4 3 3 3 4 3 4 7 6 -   .   &   ,.jXjX",
"jX[ t                         + y r w w w w w w w w w w w w w w w w w w w w w w w w 0 0 b H M M M M M M M M M M M M M M V H x i 9 7 0 w w w w w w w w w w 0 w D R A V V V M V V M M V V V V V A H K K M 6 > 2 2 2 2 2 2 2 2 3 8 $       w   jXjX",
"D.V.+                         . 9 p t r e w w w w w w w w w w w w w w w w w w w w w w 8 e b H D V M M M M M M M M M V H V a 9 7 0 w w w w w w w w w w w w w w r d x V A D D D A A V V V M M M M M M M K V 3 , 3 2 2 2 2 2 3 5 4 +       > x w jX",
"J.).&.                          o , 8 w t y y y y y t t t r r r r r r e e e w w w w w w 8 0 p k b A A A D D D D A A b d r 7 0 w e t u u y y y y y y u y y y u e w r i a d d h l x b V V A D D D D D D W K 6 2 4 5 5 5 5 4 2 : O     .   $ P.1 jX",
"7.1.pXz.                              o $ = : , 3 4 5 6 7 8 8 8 9 w w w e r t y u u y r e 0 8 9 e u i p s s s s p t w 9 9 w e u r 7 4 2 , ; ; ; ; ; : : > 1 2 4 5 5 6 7 8 9 w r t i p p s g h k l l k d 4 = : ; - = * % @ X       .     Q $X  >.",
"jX  p.rX4XG.w                                           . . . . X o o o + @ % = : 1 6 0 t u r w 0 9 9 8 8 8 8 8 9 9 w w w r r , +                                       . X o O + + + O O o o o o X                                   6 eXY.  5.",
"jX0.  2 R.4X6X$XQ.i.k @                                                               X # 1 y r 0 w w w w w w w w w w w e r %                 X @ & - ; > 3 7 9 w 0 w w w 8 6 5 4 3 1 : - & % +                                   P ].fX{.    x.",
"jXjXh       } U. X=X=XXX{.Y.V.i.+.x w 9 8 3 , : * $ @ X                                     $ w r e w w w w w w w w w w y 1       .     @ 5 p b D P K H H P R K P P K K R R R W W W W W R K M Q w.t.y.0.2.=.+.} } &.<.w.l.K.[.&X9XyX5X8.      jX",
"jXjXjXy.          # b e.V.I.Q.T.P.D.u.K K W W P K D V l h d u r w 7 5 - +                     > u 0 w e w 9 8 8 9 w w e y &       .   2 H ! M y 6 , : - * * * * * = ; ; : , 1 3 4 7 0 w r y e k 8.z.D.Y.(.}..X@X;X,X1X2X<X>X+X`.l.w         g.jX",
"jXjXjXjXjXf.3                   + 4 w 4 2 3 3 3 3 3 3 3 5 6 7 7 9 9 e 0 8 w w 2 o     .       = y w w 9 9 y u u e 8 0 e y -         > ( h > X                                                             X $ ; , , = X                   j.jXjX",
"jXjXjXjXjXjXjXjXv.[ :                                                       - e d 2   . .   . 6 y 0 9 i l V D D M s 9 0 u 4         d p         % M ,.u.c.m.n.v.c.x.k.s.r.5.>.+.P b i 4 ; - + X X                                 o e g.jXjXjXjX",
"jXjXjXjXjXjXjXjXjXjXjXjXjXjXR S.y.s.s.i.y.p.:.u a r R W ! / ( ` / R R h 8 O       s 2       7 y 0 w d H D V M M A K g 8 0 t #     o 2 o     1.jXjXjXjXjXjXjXjXjXjXjXjXjXjXjXjXjXjXjXjXjXjXjXjXjXjXjXjXjXjX5.( k e 4 , > % o.d.jXjXjXjXjXjXjXjXjX",
"jXjXjXjXjXjXjXjXjXjXjXjXjXjXjXjXjXwX6X>X*X:XjXjXjXjXjXjXjXjXjXjXjXjXjXjXjXjXjXB.b , 4     2 p w 8 a K V M M M M M M H d 7 y 5     .     t jXjXjXjXjXjXjXjXjXjXjXjXjXjXjXjXjXjXjXjXjXjXjXjXjXjXjXjXjXjXjXjXjXjXjXjXjXjXjXjXjXjXjXjXjXjXjXjXjXjXjX",
"jXjXjXjXjXjXjXjXjXjXjXjXjXu.:.: y 4 - - & + 3 M jXjXjXjXjXjXjXjXjXjXjXjXjXjXjXjXjXr       5 p w 9 u V A D D D A M b V D p 8 u *       R jXjXjXjXjXjXjXjXjXjXjXjXjXjXjXjXjXjXjXjXjXjXjXjXjXjXjXjXjXjXjXjXjXjXjXjXjXjXjXjXjXjXjXjXjXjXjXjXjXjXjXjX",
"jXjXjXjXjXjXjXjXjXjX7       $ u u a h l x x g 2   d jXjXjXjXjXjXjXjXjXjXjXjXu.d .         o 8 i y 0 0 y a d h x A V b A V w w t *     u jXjXjXjXjXjXjXjXjXjXjXjXjXjXjXjXjXjXjXjXjXjXjXjXjXjXjXjXjXjXjXjXjXjXjXjXjXjXjXjXjXjXjXjXjXjXjXjXjXjXjXjX",
"jXjXjXjXjXjXjXjX;     u W *.3.} D h d a s h h p +   jXjXjXjXjXjXjXjXjXr           .         . ; 8 r y t w 9 9 9 p D D H V r 8 r u 6 $     0 z.jXjXjXjXjXjXjXjXjXjXjXjXjXjXjXjXjXjXjXjXjXjXjXjXjXjXjXjXjXjXjXjXjXjXjXjXjXjXjXjXjXjXjXjXjXjXjXjXjX",
"jXjXjXjXjXjXjXV     0 x k g t 1 - 3 2 , > , 1 = 1   q.jXjXjXjXjXjXm.                              # - 1 7 y u w 8 y d s t 9 w w w y y 8 &       > H j.jXjXjXjXjXjXjXjXjXjXjXjXjXjXjXjXjXjXjXjXjXjXjXjXjXjXjXjXjXjXjXjXjXjXjXjXjXjXjXjXjXjXjXjXjX",
"jXjXjXjXjXjXjXo             + , X   . > @     .   3 jXjXjXjXjXjXjXb.X D 9 , * @ X                         $ 5 y t 8 7 8 9 w w w w w w t u e 4 @           . $ * e A 3.N.jXjXjXjXjXjXjXjXjXjXjXjXjXjXjXjXjXjXjXjXjXjXjXjXjXjXjXjXjXjXjXjXjXjXjXjX",
"jXjXjXjXjXjXjXk.l.      H ( -   p C.jXjXjXjXjXjXjXjXjXjXjXjXjXjXjXjX  3 P P H A b h g a y e 9 7 3 ; o         & r y 9 0 w w w 0 8 8 8 8 8 0 e t 0 5 > $                   @ D 0.jXjXjXjXjXjXjXjXjXjXjXjXjXjXjXjXjXjXjXjXjXjXjXjXjXjXjXjXjXjXjXjX",
"jXjXjXjXjXjXjXV L..X`.).x.  X jXjXjXjXjXjXjXjXjXjXjXjXjXjXjXjXjXjXjXm.    ; 3 6 7 6 5 2 > - & $ @ # X   X       O w i 0 w w 0 w y i p i u p p i y r t y 0 %                   % O =.jXjXjXjXjXjXjXjXjXjXjXjXjXjXjXjXjXjXjXjXjXjXjXjXjXjXjXjXjXjX",
"jXjXjXjXjXjXjXjXo b P 5 X g.jXjXjXjXjXjXjXjXjXjXjXjXjXjXjXjXjXjXjXjXjXf.                                . : o     X 7 i t 0 0 b P K K H A D H A V x r 9 r k 0 = , 1 @           [ R >.jXjXjXjXjXjXjXjXjXjXjXjXjXjXjXjXjXjXjXjXjXjXjXjXjXjXjXjXjX",
"jXjXjXjXjXjXjXjXjXjXjXjXjXjXjXjXjXjXjXjXjXjXjXjXjXjXjXjXjXjXjXjXjXjXjXjXjXjX3./ b M / 8.9.r.jXjXjXjXjXjXo.b =         > w y y h b x M V M A A A H V t w e A P 6 5 0 -     . X   u._.  jXjXjXjXjXjXjXjXjXjXjXjXjXjXjXjXjXjXjXjXjXjXjXjXjXjXjXjXjX",
"jXjXjXjXjXjXjXjXjXjXjXjXjXjXjXjXjXjXjXjXjXjXjXjXjXjXjXjXjXjXjXjXjXjXjXjXjXjXjXjXjXjXjXjXjXjXjXjXjXjXjXjXjX7.            X & : 1 5 8 w r y i i i i e w e 0 7 ; @ $ # X           *XW.  2.jXjXjXjXjXjXjXjXjXjXjXjXjXjXjXjXjXjXjXjXjXjXjXjXjXjXjXjX",
"jXjXjXjXjXjXjXjXjXjXjXjXjXjXjXjXjXjXjXjXjXjXjXjXjXjXjXjXjXjXjXjXjXjXjXjXjXjXjXjXjXjXjXjXjXjXjXjXjXjXjXjXjXA                       . o O + + O O + @ @ O .                     OXiXw   k jXjXjXjXjXjXjXjXjXjXjXjXjXjXjXjXjXjXjXjXjXjXjXjXjXjXjXjX",
"jXjXjXjXjXjXjXjXjXjXjXjXjXjXjXjXjXjXjXjXjXjXjXjXjXjXjXjXjXjXjXjXjXjXjXjXjXjXjXjXjXjXjXjXjXjXjXjXjXjXjXjXjXM                                                   .           / uXhXA     6.jXjXjXjXjXjXjXjXjXjXjXjXjXjXjXjXjXjXjXjXjXjXjXjXjXjXjXjX",
"jXjXjXjXjXjXjXjXjXjXjXjXjXjXjXjXjXjXjXjXjXjXjXjXjXjXjXjXjXjXjXjXjXjXjXjXjXjXjXjXjXjXjXjXjXjXjXjXjXjXjXjXjX3.+ u %                                                   p H.0XhXOX;       jXjXjXjXjXjXjXjXjXjXjXjXjXjXjXjXjXjXjXjXjXjXjXjXjXjXjXjXjX",
"jXjXjXjXjXjXjXjXjXjXjXjXjXjXjXjXjXjXjXjXjXjXjXjXjXjXjXjXjXjXjXjXjXjXjXjXjXjXjXjXjXjXjXjXjXjXjXjXjXjXjXjXjXjX  0 A k u 6 > * $ # O + @ O           . * 0 b ;.v.W.oX8XyXqX_.t         jXjXjXjXjXjXjXjXjXjXjXjXjXjXjXjXjXjXjXjXjXjXjXjXjXjXjXjXjXjX",
"jXjXjXjXjXjXjXjXjXjXjXjXjXjXjXjXjXjXjXjXjXjXjXjXjXjXjXjXjXjXjXjXjXjXjXjXjXjXjXjXjXjXjXjXjXjXjXjXjXjXjXjXjXjXc.  . 5 i h l l l l l x s ( k.Z.I.~.'.{.|.%X>X-X=XoX^.j.y           s jXjXjXjXjXjXjXjXjXjXjXjXjXjXjXjXjXjXjXjXjXjXjXjXjXjXjXjXjXjXjX",
"jXjXjXjXjXjXjXjXjXjXjXjXjXjXjXjXjXjXjXjXjXjXjXjXjXjXjXjXjXjXjXjXjXjXjXjXjXjXjXjXjXjXjXjXjXjXjXjXjXjXjXjXjXjXjXl.          . # % * - = 2 p h M R R D g w ;                 . =.jXjXjXjXjXjXjXjXjXjXjXjXjXjXjXjXjXjXjXjXjXjXjXjXjXjXjXjXjXjXjXjXjX",
"jXjXjXjXjXjXjXjXjXjXjXjXjXjXjXjXjXjXjXjXjXjXjXjXjXjXjXjXjXjXjXjXjXjXjXjXjXjXjXjXjXjXjXjXjXjXjXjXjXjXjXjXjXjXjXjXjXjX/ ,                                         + 6 / l.jXjXjXjXjXjXjXjXjXjXjXjXjXjXjXjXjXjXjXjXjXjXjXjXjXjXjXjXjXjXjXjXjXjXjXjX",
"jXjXjXjXjXjXjXjXjXjXjXjXjXjXjXjXjXjXjXjXjXjXjXjXjXjXjXjXjXjXjXjXjXjXjXjXjXjXjXjXjXjXjXjXjXjXjXjXjXjXjXjXjXjXjXjXjXjXjXjXjXjXjXjXjXf.A.l.a.y.w.q.r.i.x.Z.j.jXjXjXjXjXjXjXjXjXjXjXjXjXjXjXjXjXjXjXjXjXjXjXjXjXjXjXjXjXjXjXjXjXjXjXjXjXjXjXjXjXjXjX"
};
