/* XPM */
static char *powerup_box_xpm[] = {
/* columns rows colors chars-per-pixel */
"60 64 255 2 ",
"   c #EA2939",
".  c #EB5337",
"X  c #EB2D5A",
"o  c #EA2C7F",
"O  c #ED7E52",
"+  c #ED4F66",
"@  c #65BF76",
"#  c #71C159",
"$  c #7FC46B",
"%  c #EEAC2E",
"&  c #AAD32E",
"*  c #D5D832",
"=  c #F6CE26",
"-  c #F6DF24",
";  c #EDCA3C",
":  c #F1ED3E",
">  c #EEA550",
",  c #EFBE50",
"<  c #F09C68",
"1  c #EFB864",
"2  c #F2AE75",
"3  c #93CB54",
"4  c #B2D34C",
"5  c #B8EB52",
"6  c #8BC874",
"7  c #BAD56E",
"8  c #A3CE76",
"9  c #CADE54",
"0  c #F1DA55",
"q  c #DFE458",
"w  c #C7DB6B",
"e  c #EFD46F",
"r  c #DAE17E",
"t  c #6E3D99",
"y  c #4C55A9",
"u  c #D73B9B",
"i  c #EA388C",
"p  c #E73B94",
"a  c #A54598",
"s  c #814DA0",
"d  c #8B55A4",
"f  c #A65AA5",
"g  c #BE55A2",
"h  c #8273B6",
"j  c #B16DAD",
"k  c #CA479C",
"l  c #CD4F9F",
"z  c #DC499D",
"x  c #D5599F",
"c  c #EC4786",
"v  c #ED5387",
"b  c #E64597",
"n  c #F64E94",
"m  c #E6539C",
"M  c #EB5F9F",
"N  c #DC749D",
"B  c #EE6280",
"V  c #EE608B",
"C  c #ED7982",
"Z  c #F1758F",
"A  c #F06A93",
"S  c #EC7B99",
"D  c #FC7B9A",
"F  c #CD6CAA",
"G  c #DB66A3",
"H  c #CE7EB3",
"J  c #EB7BA7",
"K  c #7EBF9C",
"L  c #60C08C",
"P  c #72C386",
"I  c #6CC495",
"U  c #6FC69F",
"Y  c #74C69A",
"T  c #5FC3B3",
"R  c #59C3BF",
"E  c #6BC6A3",
"W  c #6AC5AB",
"Q  c #71C5A5",
"!  c #7DC1AD",
"~  c #75C8AD",
"^  c #78C8AA",
"/  c #79C9AE",
"(  c #66C7BF",
")  c #6BC9BF",
"_  c #70C4B2",
"`  c #7EC1B4",
"'  c #76C9B2",
"]  c #7FCBB0",
"[  c #77C9BB",
"{  c #73C9BF",
"}  c #7DCDBA",
"|  c #1B9BDB",
" . c #3888D0",
".. c #3DA6DE",
"X. c #2CB7D4",
"o. c #159CFE",
"O. c #04A2E6",
"+. c #10A3E3",
"@. c #1BA5E0",
"#. c #17B3E8",
"$. c #10B4EC",
"%. c #1DA0F9",
"&. c #0DB4F2",
"*. c #16B8F5",
"=. c #2EA8E3",
"-. c #21AAED",
";. c #31A1E8",
":. c #25B5ED",
">. c #33B4EA",
",. c #2BBCF6",
"<. c #598FD0",
"1. c #6D87C3",
"2. c #728EDE",
"3. c #4BB1D6",
"4. c #6CACD1",
"5. c #45BCE8",
"6. c #69AEE3",
"7. c #3FD5DA",
"8. c #28CBF5",
"9. c #36C0F1",
"0. c #4FC2C7",
"q. c #42C0CF",
"w. c #5AC5CA",
"e. c #4CC2D8",
"r. c #56C5D3",
"t. c #5AC9DF",
"y. c #5AD6D6",
"u. c #69C7C6",
"i. c #6FC9C2",
"p. c #68CBC7",
"a. c #63CBCB",
"s. c #6BCACA",
"d. c #79CEC3",
"f. c #63C8D0",
"g. c #64C9DA",
"h. c #6ECAD9",
"j. c #7ACBD1",
"k. c #68DAD2",
"l. c #5AE1D4",
"z. c #6DE2D1",
"x. c #59C2E9",
"c. c #46C7F6",
"v. c #5AC9F8",
"b. c #45D5FE",
"n. c #69CDE2",
"m. c #66C7E9",
"M. c #7BC7E7",
"N. c #63CDF6",
"B. c #6BCDF5",
"V. c #78D1F7",
"C. c #80A095",
"Z. c #ADBF88",
"A. c #AB84BC",
"S. c #8BBAA3",
"D. c #8EBBB1",
"F. c #D7998F",
"G. c #F08E82",
"H. c #F39C95",
"J. c #C9A190",
"K. c #F2A582",
"L. c #D98BAA",
"P. c #CE90BE",
"I. c #F098A9",
"U. c #CEA7B4",
"Y. c #F7AEB7",
"T. c #8BC886",
"R. c #86CB99",
"E. c #94CE97",
"W. c #B3D78C",
"Q. c #A0D191",
"!. c #A1D39E",
"~. c #B7DB9F",
"^. c #89CDA8",
"/. c #90CFA8",
"(. c #98D1A6",
"). c #84CDB4",
"_. c #8CD1BC",
"`. c #97D5B7",
"'. c #A3D5A8",
"]. c #A5D8BD",
"[. c #B2DCB4",
"{. c #C2DD90",
"}. c #E5C78A",
"|. c #FBDF90",
" X c #D4E298",
".X c #F9C4A0",
"XX c #FDDCB2",
"oX c #C5E0A4",
"OX c #C4E2BC",
"+X c #D6E4B4",
"@X c #E6ECB3",
"#X c #8E8FC2",
"$X c #A09DC3",
"%X c #B992C0",
"&X c #81BFC5",
"*X c #9FB7C8",
"=X c #90A3D1",
"-X c #89B9DA",
";X c #B4A9CF",
":X c #C2BDCD",
">X c #E7AED4",
",X c #83D5C9",
"<X c #9BD7CE",
"1X c #B8DECD",
"2X c #B1DEDA",
"3X c #8BCEE5",
"4X c #80D1F1",
"5X c #8ED6F4",
"6X c #A8D0E4",
"7X c #A1DDF3",
"8X c #B5DFF1",
"9X c #F8CAC7",
"0X c #C7E4C8",
"qX c #D2E9CA",
"wX c #C1E4DC",
"eX c #D1EADA",
"rX c #F5F3C9",
"tX c #F4F7DD",
"yX c #C7D1E7",
"uX c #FACCE1",
"iX c #FBDCEA",
"pX c #C4E4EF",
"aX c #D7EBE5",
"sX c #DCEEE2",
"dX c #C0E7F8",
"fX c #D0EDF9",
"gX c #DCF1F8",
"hX c #FEFDE7",
"jX c #F5F7EE",
"kX c #E7E4F3",
"lX c #FBE9F1",
"zX c #E1F0F4",
"xX c #E8F5F6",
"cX c #E5F5FA",
"vX c #EBF7FB",
"bX c #EEF9FD",
"nX c #F2F0F7",
"mX c #FDF2F6",
"MX c #F0F8F6",
"NX c #FFFFF2",
"BX c #F2F7FA",
"VX c #FFF6FF",
"CX c #F2FAFE",
"ZX c #F7FBFD",
"AX c #F9FCFA",
"SX c #FFFEF9",
"DX c #FDF9FC",
"FX c #FBFDFE",
"GX c #FAFEFF",
"HX c #FFFFFD",
"JX c #FFFDFF",
"KX c #FDFEFF",
"LX c #FEFEFE",
"PX c #FFFFFF",
"IX c None",
/* pixels */
"IXIXIXIXIXIXIXIXIXIXIXIXIXIXIXIXIXIXIXIXIXIXIXIX<.g.R.E.IXIXIXIXIXIXIXIXIXIXIXIXIXIXIXIXIXIXIXIXIXIXIXIXIXIXIXIXIXIXIXIX",
"IXIXIXIXIXIXIXIXIXIXIXIXIXIXIXIXIXIXIXIXIXIXh y  .e.U @ @ P R.E.IXIXIXIXIXIXIXIXIXIXIXIXIXIXIXIXIXIXIXIXIXIXIXIXIXIXIXIX",
"IXIXIXIXIXIXIXIXIXIXIXIXIXIXIXIXIXIXIXIX#Xs t y ..k.] K P # # # # # 6 E.IXIXIXIXIXIXIXIXIXIXIXIXIXIXIXIXIXIXIXIXIXIXIXIX",
"IXIXIXIXIXIXIXIXIXIXIXIXIXIXIXIXIXIXIXs t a t y  .t.] P $ # # $ $ T.$ $ # $ T.E.IXIXIXIXIXIXIXIXIXIXIXIXIXIXIXIXIXIXIXIX",
"IXIXIXIXIXIXIXIXIXIXIXIXIXIXIXIXIXh s f A.A.h y  .t._.^./.E.$ 3 /._.`./.8 3 3 3 3 3 8 W.IXIXIXIXIXIXIXIXIXIXIXIXIXIXIXIX",
"IXIXIXIXIXIXIXIXIXIXIXIXIXIXIX$Xd a f ;X6X6X3X<. .g.).R.R.T.$ $ T.T.E.Q.8 7 7 7 ~.~.Q.8 3 8 8 Q.IXIXIXIXIXIXIXIXIXIXIXIX",
"IXIXIXIXIXIXIXIXIXIXIXIXIXIXf a g g j A.A.A.#Xy  .t.] P T.T.T.T.6 E.].].].[.7 W.1X1X1X1Xr r r w w 7 7 {.IXIXIXIXIXIXIXIX",
"IXIXIXIXIXIXIXIXIXIXIXIXA.a g H H j j f A.;X=X6.x.g.] `.<X<X<X(.T.(.].].[.[.W.W.{.oXoX Xr r r r  XoXoX{.w w {. XIXIXIXIX",
"IXIXIXIXIXIXIXIXIXIX%Xf k F :X:X6X6X;Xj ;X6X6X4XB.n.).^./.(.(.E.T.Q.Q.!.~.~.{.{.{.{.OXOX0X0Xr r OX2X2X2XOXe e r w }.IXIX",
"IXIXIXIXIXIXIXIXIXj g G F H ;X:X;X;XA.A.A.A.#X1.6.m.).R.R.(.(.'.'.E.!.1XwXwXwXOX{.oX0X0XqX0X Xr r  XoXoX X}. X}.2 > K.IX",
"IXIXIXIXIXIXIXA.k x F F F F F H P.%X%XA.A.%X;XM.4X7X<XR.'.2X2X2X2X'.Q.[.1XOXOXoX{.{. X X X X Xr r r r r  X}.+XU.< O B IX",
"IXIXIXIXIXIXg x H U.U.%XP.H P.yXyX8XpX;XA.%X8X7X7X7X<XR.R.(.(.(.(.E.Q.Q.W.W.~.oXoXoX{.+XqXeXqXqX Xr r  X X+XY.H >XY.+ S ",
"IXIXIXIXj x G L.1X1X2XwX:XH P.yX6XyX:X;X%X%XA.1.6.4X_.R.T.6 Q.'.'.].'.W.W.0XwXwXwX0X X+XeXeXaXaX+X X X@XrX.X> I.uX>X+ + ",
"IXIXH l N N N L.U.:X:X:XP.P.H H P.%X;XP.=Xm.6.-X3X5X6X,X[ } 2X2X2XwX1X!.W.[.OX0X0XOX X X@X@X@X+X X XrXhXyXL.K.9XiXI.  X ",
"IXG o V N N N N H H P.H H P.P.P.:XyXyXyX7Xb.b.7X8X7X7X5Xc.c.N.4XV.B.v.c.m.h.n.4X6X2X+X@X@X@X@X@X@XtXhXXXL.>XVXrXY.O   B ",
"IXo i c i c N N G H H P.P.P.H P.yXdXyX8X5XN.c.c.N.B.B.c.c.c.c.c.v.B.B.V.N.v.V.dXdXdXgXtX@X@X@XrXhXJXrX> 9XPXJX9X% .   A ",
"IXo i i c C J.J.N m G F F H P.P.P.P.;XN.c.c.B.7X4X4X5X5X4XB.N.V.8X8XpXpX8XV.5XpXzXcXvXMXrXrXtXNXPXkXP.9XhXHXuX> % O   S ",
"M o i o V K.G.F.F.z u F H F F H P.L.-Xb.c.c.fXSXxXzXzXzXzXgXzXzXzXgXzXcXcXfXfXdX8XdXdXsXrXhXSXPXrXU.iXGXNX9X< % % O X IX",
"v o i i v G.G.K.S u N J.U.U.F g m #X8.c.9.5XSXgXzXfXgXgXzXxXMXMXvXvXbXCXZXPXKXLXdX8XdXaXhXHXLXjX, .XDXHX9X> % % % + X IX",
"J o i i i B C C b z F.L.L.J.H u x 3.8.#.9.xXMXgXcXxXxXcXxXxXxXvXbXBXZXLXLXKXKXPXbXdXfXvXKXPXVX:XY.XXVX9X> , , % > v X IX",
"A o i i i o i i i b J I.L.I.F b D.7.R X.7XHXcXcXcXcXcXxXvXvXvXbXCXFXPXPXPXPXPXPXKXcXbXZXGXNX>X>XuX9X}., ; 1 < % % X X IX",
"IXo i i i i i i b b z N L.F p F k.w.q.[ tXZXzXeXeXaXvXBXAXHXPXPXPXPXPXPXPXPXPXPXPXFXZXPXcXr }.>XuX}.; ; , H.< % %   + IX",
"IXo i v C v i i b b z k l k p <.7.p.0.0XAXzX0X0X1X0XzXcXfXfXgXbXPXPXPXPXPXPXPXPXPXPXPXJX6.C.e >X.X; ; ; 1 H.< % O   c IX",
"IXc i C G.G.B i b b z l l p j #.>.X.<XNXCXsX0X0X0XqX6X-.>.e.e.5.N.7XvXPXPXPXPXPXPXPXZX=X<.2.}.0 = - ; ; 2 H.> < O   B IX",
"IXc o B G.G.G.c p b z l z k ..:.| 5.FXPXCXvXeX0X0XrX5.O.q.0.0.q.#.#.>.8XPXPXPXPXPXPXyX<.1.2.S.- - , 1 ; 2 < > < O   S IX",
"IXv o c G.G.K.V i b z M D $X*.=.=.dXJXZXvXCXMXsXtXpX-.X.w.r.r.a.q.O.O.m.AXCXPXPXFXzXBX*X1.<.=.* - K.2 ; , , < > O X IXIX",
"IXv o i v G.G.c p p z D U.z.t.=.=.m.dXPXPXCXbXCXFX4X| >.q.0.X.X.5.B.dXxXxXzXcXcXgXkXVXzX..=.o.T.= H., 1 1 % > % + X IXIX",
"IXA i c c n c c V b u A U.&Xz.9.=.| | x.dXHXPXPXcX..=.| O.X.g.2XzXLXLXBXcXcXcXzXzXvXKXJXM.| ;.3.1 K., H.2 ; % % + X IXIX",
"IXS o v v v b C K.G.m z D H.U.4.&.:.=.@.q.,XpXPX7XO.=.5.3XfXGXGXGXbXvXvXvXvXbXKXPXFXdXM.......o.#X, 1 H.1 > % % + X IXIX",
"IXIXc V v v c G.K.K.H.z l J D m h <.&.7.i.0.R 4X5.@.@.8XPXKXCXvXvXbXbXbXCXPXPXcX7X3.| | <.<.o.%.S.= 2 K.1 G.% % . X IXIX",
"IXIXc V A Z c V K.K.K.N k k l k n x h 3.l.a.) q.@.>.+.7XPXvXvXbXvXcXbXPXKXdXM...| | ;.%.<.1.K 9 - ; K.1 K.< > O   + IXIX",
"IXIXc A H..XH.V Z K.H.A k l k G I.I.M g $X,Xz.y.>.=.+.5XSXqXqXsXbXCXxX7Xx.| | =.;.%.=.4.%Xe - , - ; ; , H.> > O   v IXIX",
"IXIXv Z .X.X.XH.v Z D z k k k N I.L.I.F a j #X3.:.=.+.4XtXOX0XOXaXPXdXO.+...;.%..._ 7 e .X0 2 K.- ; ; 1 K.> < O X B IXIX",
"IXIXV V H.XXXX.XZ m m z x G k l I.I.U.P.f s t y  .8.+.B.hXqXqXqXqXSXfX=.=.=.3.K w : : }.}.0 H., ; K.; , , > > O X Z IXIX",
"IXIXA Z I..XXX.XZ A M M I.I.J k x I.Y.P.s y y y 4.k.q.x.vXqX0X0X0XxXdX-.=.>.T.7 w 9 q 0 : e F.; 2 2 , 1 ; > % O X IXIXIX",
"IXIXZ Z Y.I.Y.H.S Z m M I.H.I.J k j j d y y y ..d.p.s.a.5.>.r.w.e.>.>.=.>.8.~ T.8 9 9 q : 1 0 ; K.1 2 K.; % % +   IXIXIX",
"IXIXJ Z Y.Y.Y.I..X.XH.m J I.I.I.F a s y y 1...t.} s.f.p.X.O.O.O.O.O.O.=.9.8.T I T.4 9 w q : - , K., H.2 < > % . X IXIXIX",
"IXIXS Z 9X9XY.I.XXXX|.I.z J H.I.f d y y =X_._.d.r.r.s.) h.v.x.x.x.m.x.>.>.,.0.I $ 3 4 4 9 w : 0 ; , H.2 G.% % . X IXIXIX",
"IXIXIXZ 9XmXmXY.Y.XX.X.XG z x j s y y 1._.`.'.(.e.-.X.r.MXPXKXAXAXSXHXx.@.;.0.I # @ # 3 Z.7 9 q : 1 , 1 K.> O . + IXIXIX",
"IXIXIXZ uXJXJXmXY..XXX.XJ l f d h #X1.;.,X'./.!.w.-.+.c.FXMXxXbXvXMXSXm.@.;.0.Y U I @ Y D.$ 8 7 9 q : 2 , 1 < . c IXIXIX",
"IXIXIXZ 9XJXPXPX9XI.Y.I.J f s y $X*X_.k.t._.(.(.e.-.+.B.jXqX0XsXvXvXSXM.+.>.3.0.T U U &X! P S.$ 3 7 9 0 0 1 > X c IXIXIX",
"IXIXIXA Y.lXPXPXhXI.I.J P.P.h y 1.].`.].g.t.{ } 5.-.O.V.tXOX0XOXsXbXSX4X$.,.3.q.R Y Q &XQ K D.P S.$ 3 3 w 0 >   B IXIXIX",
"IXIXIXA Y.iXmXDXiXY.>XP.U.:X$X1...,X].].s.t.f.u.e.e.X.5XNXqXqXqXqXMXHX5X$.9...q.T Y W _ I ` K K D.P P # # 5 , . IXIXIXIX",
"IXIXIXA Y.iXlXiXuXuX9X%X%X:X*X].t.5.j.j.t.t.f.a.a.d.w.<XZXsXqX+XqXzXLX7X#.9...R U U U I Y ` P S.K K D.P @ 3 = K.IXIXIXIX",
"IXIXIXZ I.uXlXlXiXHXhX:X1.*XOX[.j.9.5.x.h.} d.r.r.d.s.d.t.9.5.r.5.9.5.5.=.=...E Y E E I I P P S.P S.S.K T.& , IXIXIXIXIX",
"IXIXIXS D uXmXmXlXKXhXrX6X6.j.d.x.5.x.t.`.'.'.) :.f.d.d.q.&.&.&.$.$.&.:.....;.T Y E U I U P P P P S.K S.4 ; IXIXIXIXIXIX",
"IXIXIXIXZ iXPXJXkXkXhXrXqXg.5.>.5.t.x.x._.'.'./.:.*.e.r.>.&.*.*.*.*.*.:.,.,...3.W U I ` &XL @ @ P P K 7 = IXIXIXIXIXIXIX",
"IXIXIXIXV iXPXPXJXyXaXtX1Xg.x.>.g.]._.g.g.'.'.!.i.e.e.r.r.w.w.r.w.w.w.R a.w.3.q.T Y W &X! Y ^.@ P @ $ ; IXIXIXIXIXIXIXIX",
"IXIXIXIXJ >XnXHXPXzX6X6X3X3Xh.>.j.[.[.`.g.s././.).} } [ ).!.!.^.] R.R.R.^./ 0.0.E U _ -XQ D.S.P K # * e IXIXIXIXIXIXIXIX",
"IXIXIXIXIXL.yXPXPXgXpX6X6X0XOXj.5.].].[._.t.s.i.i.i.) u.).(./.E.] ' ~ ^ ^ _ R E U E ` &XU *XY D.K & 0 IXIXIXIXIXIXIXIXIX",
"IXIXIXIXIX%Xh 6XbXgXpX6X<XqX+XOXh.t.].[.,Xf.s.i.[ ^.).{ { /./.E././ ~ ^ Q U U Y E E _ E ! D.Y D.4 ; IXIXIXIXIXIXIXIXIXIX",
"IXIXIXIXIXIXIX#X=X6XpX8X3X<X+X+X].x.m.j.g.s.s.u.).'.(./.{ [ /.E.^./ ~ ^ ^ _ 0.R E Q E I ! Q K Z.* IXIXIXIXIXIXIXIXIXIXIX",
"IXIXIXIXIXIXIXIXIX;X=X=Xj.M.<XOX<Xg.n.t.d.`._.i.[ (././.).i.[ ] / ' ^ ^ ] ) 0.q.W E E I E L $ * IXIXIXIXIXIXIXIXIXIXIXIX",
"IXIXIXIXIXIXIXIXIXIXIX$X#X4.3.m.n.n.h.g._.~.'.(.i.} (.(.^.{ { { ' / ^ ^ ).) q.0.E E E [ E @ & |.IXIXIXIXIXIXIXIXIXIXIXIX",
"IXIXIXIXIXIXIXIXIXIXIXIXIXIX*X<.3.n.n.h.j.'.'.!.).u.[ ).[ i.{ [ ' / ^ ^ / ( R W Q E _ -XL & e IXIXIXIXIXIXIXIXIXIXIXIXIX",
"IXIXIXIXIXIXIXIXIXIXIXIXIXIXIXIX=X<.3.t.g.} '.!.).i.i.i.{ ).} [ ' / / ^ Q E U Y E E &X&X3 0 IXIXIXIXIXIXIXIXIXIXIXIXIXIX",
"IXIXIXIXIXIXIXIXIXIXIXIXIXIXIXIXIXIX6X4.3.e.d.).[ { { i.).(.(.^.' ' / ^ ^ _ R T E W -XT.* IXIXIXIXIXIXIXIXIXIXIXIXIXIXIX",
"IXIXIXIXIXIXIXIXIXIXIXIXIXIXIXIXIXIXIXIXIX6...e.) } [ i.} (./.(.^.' / ^ ).) q.q.W W K 4 IXIXIXIXIXIXIXIXIXIXIXIXIXIXIXIX",
"IXIXIXIXIXIXIXIXIXIXIXIXIXIXIXIXIXIXIXIXIXIXIXM.r.0.) } { ).(.(./.' ~ ~ _.) q.R W @ & |.IXIXIXIXIXIXIXIXIXIXIXIXIXIXIXIX",
"IXIXIXIXIXIXIXIXIXIXIXIXIXIXIXIXIXIXIXIXIXIXIXIXIX3X3.0.( [ )./.] ' / ^ ] ( 0.T @ 3 r IXIXIXIXIXIXIXIXIXIXIXIXIXIXIXIXIX",
"IXIXIXIXIXIXIXIXIXIXIXIXIXIXIXIXIXIXIXIXIXIXIXIXIXIXIX-Xh.R ( ' / / / / ^ W ~ L # 9 IXIXIXIXIXIXIXIXIXIXIXIXIXIXIXIXIXIX",
"IXIXIXIXIXIXIXIXIXIXIXIXIXIXIXIXIXIXIXIXIXIXIXIXIXIXIXIXIXIXj.w.R / ^ ^ / ~ I # 4 IXIXIXIXIXIXIXIXIXIXIXIXIXIXIXIXIXIXIX",
"IXIXIXIXIXIXIXIXIXIXIXIXIXIXIXIXIXIXIXIXIXIXIXIXIXIXIXIXIXIXIXIXM.r.R ' _ L # 4 IXIXIXIXIXIXIXIXIXIXIXIXIXIXIXIXIXIXIXIX",
"IXIXIXIXIXIXIXIXIXIXIXIXIXIXIXIXIXIXIXIXIXIXIXIXIXIXIXIXIXIXIXIXIXIX3Xh.{ R.IXIXIXIXIXIXIXIXIXIXIXIXIXIXIXIXIXIXIXIXIXIX"
};
