/* XPM */
static char* car_xpm[] = {
  "16 16 2 1",
  "  c #FFFFFF",
  ". c #FF0000",
  "       ..       ",
  "      ....      ",
  "     ......     ",
  "     ......     ",
  "     ......     ",
  "      ....      ",
  "   ....  ....   ",
  "   ....  ....   ",
  "   ....  ....   ",
  "   ....  ....   ",
  "     ......     ",
  "     ......     ",
  "     ......     ",
  "     ......     ",
  "    ........    ",
  "   ..........   "
};

